<svg width="78" height="64" viewBox="0 0 78 64" fill="none" xmlns="http://www.w3.org/2000/svg">
<path d="M76.191 0.877136H36.4212C36.1754 0.877294 35.9354 0.950302 35.7311 1.08693C35.5269 1.22356 35.3673 1.41761 35.2734 1.64468C35.1794 1.87175 35.1552 2.12159 35.2032 2.3626C35.2512 2.60361 35.3692 2.82505 35.543 2.99881L45.8498 13.3053L33.9353 25.2194L27.3576 18.6413C27.1245 18.4085 26.8084 18.2777 26.479 18.2777C26.1495 18.2777 25.8338 18.4085 25.6008 18.6413L0.744531 43.4976C0.511703 43.7306 0.380859 44.0466 0.380859 44.376C0.380859 44.7054 0.511703 45.0213 0.744531 45.2544L18.144 62.6537C18.377 62.8865 18.6927 63.0174 19.0222 63.0174C19.3516 63.0174 19.6673 62.8865 19.9004 62.6537L32.6926 49.8616L39.2716 56.4397C39.5046 56.6725 39.8204 56.8033 40.1498 56.8033C40.4792 56.8033 40.7954 56.6725 41.0284 56.4397L65.0056 32.4623L75.3132 42.7687C75.4871 42.9422 75.7082 43.0603 75.9491 43.1081C76.1901 43.1559 76.44 43.1313 76.6669 43.0372C76.8938 42.9432 77.0878 42.784 77.2243 42.5798C77.3609 42.3756 77.4335 42.1355 77.4337 41.8899V2.11997C77.4337 1.79036 77.3031 1.47421 77.07 1.24113C76.837 1.00806 76.5206 0.877136 76.191 0.877136ZM19.0217 60.0181L3.37996 44.3755L26.4785 21.277L28.4503 23.2477L23.1149 28.5838L24.8717 30.3406L30.2071 25.0054L38.3926 33.1903L33.0575 38.5263L34.8144 40.2832L40.1494 34.9479L42.1212 36.9187L19.0217 60.0181ZM41.855 40.6995L39.3869 53.0387L34.4502 48.1022L41.855 40.6995ZM74.9483 38.8902L65.8846 29.8266C65.6516 29.5938 65.3354 29.4631 65.006 29.4631C64.6766 29.4631 64.3609 29.5938 64.1278 29.8266L42.1736 51.7808L45.096 37.1637L45.0739 37.1592C45.1181 36.9611 45.1119 36.7551 45.0565 36.5599C45.0012 36.3646 44.8981 36.1862 44.7566 36.0407L35.693 26.9762L48.4852 14.1841C48.718 13.951 48.8489 13.6351 48.8489 13.3057C48.8489 12.9763 48.718 12.6603 48.4852 12.4273L39.4216 3.36269H74.9483V38.8902Z" fill="#22274E"/>
<path d="M30.4644 39.1477L29.2213 37.9049C28.4934 37.1783 27.5072 36.7703 26.4788 36.7703C25.4504 36.7703 24.4641 37.1783 23.7363 37.9049C23.4748 38.1662 23.1203 38.3131 22.7506 38.3131C22.3809 38.3131 22.026 38.1662 21.7645 37.9049L20.5217 36.662C20.2713 36.3984 20.1339 36.0474 20.1386 35.6837C20.1432 35.3201 20.2897 34.9725 20.5469 34.7154C20.8041 34.4582 21.1511 34.3117 21.5148 34.3071C21.8785 34.3024 22.2299 34.44 22.4935 34.6905L23.1147 35.3118L24.8715 33.555L24.2504 32.9337C23.677 32.3637 22.9396 31.9876 22.1416 31.8584C21.3436 31.7291 20.5249 31.853 19.8009 32.2128L18.6574 31.0695L16.9006 32.8263L18.0441 33.9696C17.6843 34.6936 17.5602 35.5121 17.6895 36.3101C17.8188 37.1081 18.195 37.8455 18.7649 38.4189L20.0077 39.6617C20.7356 40.388 21.7223 40.7959 22.7506 40.7959C23.7789 40.7959 24.7651 40.388 25.4931 39.6617C25.7546 39.4003 26.109 39.2536 26.4788 39.2536C26.8485 39.2536 27.2034 39.4003 27.4649 39.6617L28.7076 40.9045C28.8426 41.0327 28.9504 41.1867 29.0249 41.3573C29.0994 41.5278 29.1391 41.7117 29.1415 41.8978C29.1439 42.0839 29.1089 42.2686 29.0388 42.441C28.9686 42.6135 28.8648 42.7702 28.7332 42.9018C28.6016 43.0334 28.4448 43.1374 28.2724 43.2075C28.1 43.2776 27.915 43.3125 27.7289 43.3101C27.5427 43.3077 27.3593 43.2681 27.1888 43.1936C27.0182 43.1191 26.864 43.0111 26.7358 42.8761L26.1142 42.2547L24.3579 44.0115L24.979 44.6329C25.549 45.2082 26.2866 45.5881 27.086 45.718C27.8854 45.8478 28.7057 45.721 29.4284 45.3556L30.5719 46.4989L32.3283 44.7413L31.187 43.5988C31.546 42.8742 31.6694 42.0555 31.5398 41.2574C31.4102 40.4592 31.0342 39.7215 30.4644 39.1477Z" fill="#22274E"/>
<path d="M21.3907 50.1919C20.6693 49.7795 19.8528 49.5626 19.0219 49.5626C18.1909 49.5626 17.3744 49.7795 16.653 50.1919L13.207 46.7457C13.6193 46.0242 13.836 45.2077 13.836 44.3768C13.836 43.5459 13.6193 42.7294 13.207 42.008L16.1736 39.042L14.416 37.2844L10.6873 41.0128C10.5719 41.1282 10.4806 41.2652 10.4182 41.416C10.3557 41.5668 10.3232 41.7285 10.3232 41.8917C10.3232 42.0549 10.3557 42.2165 10.4182 42.3673C10.4806 42.5181 10.5719 42.6551 10.6873 42.7705C11.1128 43.1971 11.3518 43.7748 11.3518 44.3773C11.3518 44.9797 11.1128 45.5576 10.6873 45.9841C10.5719 46.0995 10.4806 46.2365 10.4182 46.3873C10.3557 46.5381 10.3232 46.6997 10.3232 46.8629C10.3232 47.0261 10.3557 47.1877 10.4182 47.3385C10.4806 47.4893 10.5719 47.6264 10.6873 47.7418L15.6587 52.713C15.7741 52.8284 15.911 52.9199 16.0618 52.9824C16.2126 53.0448 16.3745 53.0771 16.5377 53.0771C16.701 53.0771 16.8624 53.0448 17.0132 52.9824C17.164 52.9199 17.3009 52.8284 17.4164 52.713C17.8426 52.2871 18.4206 52.0479 19.0232 52.0479C19.6258 52.0479 20.2037 52.2871 20.63 52.713C20.863 52.9455 21.1786 53.0761 21.5078 53.0761C21.837 53.0761 22.153 52.9455 22.386 52.713L26.1141 48.9846L24.3578 47.2278L21.3907 50.1919Z" fill="#22274E"/>
<path d="M40.5054 26.0995L42.9912 23.6135L44.7491 25.3714L42.2633 27.8574L40.5054 26.0995Z" fill="#22274E"/>
<path d="M45.4773 21.1287L60.3913 6.21497L62.149 7.97264L47.2354 22.8864L45.4773 21.1287Z" fill="#22274E"/>
</svg>
