<svg width="78" height="79" viewBox="0 0 78 79" fill="none" xmlns="http://www.w3.org/2000/svg">
<path d="M77.6895 49.9635L65.2495 31.3036C65.1442 31.1452 65.0014 31.0153 64.8338 30.9254C64.6662 30.8356 64.4789 30.7886 64.2887 30.7886C64.0985 30.7886 63.9116 30.8356 63.744 30.9254C63.5764 31.0153 63.4337 31.1452 63.3284 31.3036L50.8875 49.9635C50.7715 50.1374 50.7047 50.3396 50.6946 50.5484C50.6845 50.7572 50.7309 50.9647 50.8295 51.149C50.9281 51.3333 51.0753 51.4873 51.2547 51.5947C51.434 51.7021 51.6388 51.7588 51.8478 51.7587H56.9146V60.2747C55.2961 58.0451 52.961 56.4385 50.3002 55.7237L44.1395 54.0722V50.7925C45.6222 49.9102 46.8564 48.6654 47.7258 47.1751C48.5952 45.6848 49.0716 43.9979 49.1099 42.2729H50.4487C51.3411 42.2728 52.202 41.9451 52.8687 41.352C53.5355 40.759 53.9613 39.9418 54.0654 39.0555C54.1695 38.1693 53.9445 37.2757 53.4333 36.5443C52.9222 35.8129 52.1607 35.2945 51.2927 35.0877V31.9443C51.2925 30.0095 50.8427 28.1013 49.9792 26.3699C49.1158 24.6385 47.8621 23.1312 46.3169 21.967V20.9694H51.3814C51.5905 20.9694 51.7957 20.9127 51.975 20.8053C52.1543 20.698 52.3011 20.5439 52.3997 20.3596C52.4983 20.1753 52.5452 19.9677 52.5351 19.7589C52.5249 19.5501 52.4582 19.348 52.3422 19.1742L39.9022 0.514109C39.7967 0.355939 39.6536 0.226322 39.4861 0.13662C39.3185 0.0469183 39.1315 0 38.9414 0C38.7513 0 38.5643 0.0469183 38.3967 0.13662C38.2291 0.226322 38.0861 0.355939 37.9806 0.514109L33.6133 7.0643C33.4435 7.31908 33.3821 7.63088 33.4422 7.93111C33.5023 8.23134 33.6791 8.49534 33.9339 8.66515C34.1886 8.83496 34.5002 8.8966 34.8005 8.83652C35.1007 8.77644 35.365 8.59959 35.5348 8.34482L38.9414 3.23565L49.2245 18.6605H45.1623C45.0106 18.6604 44.8602 18.6902 44.72 18.7482C44.5797 18.8062 44.4524 18.8913 44.3451 18.9986C44.2378 19.1059 44.1527 19.2334 44.0947 19.3736C44.0367 19.5138 44.0068 19.6641 44.0069 19.8158V20.5854C42.4219 19.8542 40.7012 19.464 38.9559 19.4397C37.2106 19.4154 35.4797 19.7577 33.875 20.4445V19.8158C33.875 19.5097 33.7533 19.216 33.5368 18.9995C33.3203 18.783 33.0266 18.6614 32.7205 18.6614H28.6583L32.5462 12.829C32.6303 12.7028 32.6888 12.5614 32.7182 12.4126C32.7477 12.2639 32.7475 12.1107 32.7178 11.962C32.6881 11.8133 32.6296 11.672 32.5453 11.5459C32.4609 11.4199 32.3527 11.3118 32.2265 11.2277C32.1004 11.1435 31.9587 11.085 31.81 11.0555C31.6612 11.026 31.5082 11.0262 31.3595 11.0559C31.2108 11.0857 31.0694 11.1443 30.9434 11.2287C30.8174 11.313 30.7092 11.4214 30.6251 11.5475L25.5397 19.1751C25.424 19.349 25.3577 19.551 25.3477 19.7597C25.3378 19.9683 25.3845 20.1759 25.4831 20.36C25.5817 20.5442 25.7287 20.6982 25.9078 20.8057C26.0869 20.9131 26.2916 20.97 26.5005 20.9703H31.565V21.7427C29.9326 22.8962 28.6009 24.4245 27.6813 26.1993C26.7616 27.9741 26.281 29.9435 26.28 31.9424V35.1748C25.4603 35.4491 24.7646 36.006 24.3177 36.7459C23.8708 37.4858 23.7017 38.3605 23.8405 39.2136C23.9793 40.0668 24.4173 40.8429 25.0756 41.403C25.734 41.9631 26.5697 42.2708 27.434 42.2711H28.7733C28.8116 43.9962 29.2878 45.6832 30.1574 47.1735C31.027 48.6639 32.2612 49.9086 33.7442 50.7907V54.0713L27.5826 55.7228C24.922 56.437 22.5876 58.0432 20.9695 60.2728V51.7569H26.035C26.244 51.757 26.4493 51.7003 26.6286 51.5929C26.8079 51.4855 26.9547 51.3314 27.0533 51.1472C27.1519 50.9629 27.1988 50.7552 27.1887 50.5465C27.1785 50.3377 27.1118 50.1356 26.9958 49.9617L14.5548 31.3017C14.4494 31.1435 14.3063 31.0139 14.1387 30.9242C13.9712 30.8345 13.7842 30.7874 13.5941 30.7874C13.404 30.7874 13.217 30.8345 13.0494 30.9242C12.8818 31.0139 12.7387 31.1435 12.6333 31.3017L0.193288 49.9617C0.0776098 50.1357 0.0112927 50.3377 0.00131795 50.5463C-0.00865679 50.755 0.0381347 50.9625 0.136693 51.1467C0.235252 51.3309 0.381796 51.4849 0.560929 51.5923C0.740062 51.6998 0.945154 51.7567 1.15404 51.7569H6.22043V65.6064C6.22043 65.9126 6.34214 66.2061 6.55864 66.4226C6.77514 66.6391 7.06879 66.7608 7.37497 66.7608C7.68114 66.7608 7.9748 66.6391 8.19129 66.4226C8.40779 66.2061 8.52951 65.9126 8.52951 65.6064V50.6006C8.52951 50.2944 8.40779 50.0008 8.19129 49.7844C7.9748 49.5679 7.68114 49.4461 7.37497 49.4461H3.3119L13.5941 34.0213L23.8781 49.4461H19.815C19.5088 49.4461 19.2152 49.5679 18.9987 49.7844C18.7822 50.0008 18.6605 50.2944 18.6605 50.6006V76.5034H8.52951V71.0001C8.52951 70.6939 8.40779 70.4004 8.19129 70.1839C7.9748 69.9674 7.68114 69.8457 7.37497 69.8457C7.06879 69.8457 6.77514 69.9674 6.55864 70.1839C6.34214 70.4004 6.22043 70.6939 6.22043 71.0001V77.6652C6.22043 77.9714 6.34214 78.265 6.55864 78.4815C6.77514 78.698 7.06879 78.8197 7.37497 78.8197H70.5078C70.6595 78.8199 70.81 78.7901 70.9502 78.7321C71.0903 78.6742 71.2178 78.5891 71.3251 78.4819C71.4324 78.3746 71.5174 78.2473 71.5754 78.1072C71.6335 77.9671 71.6633 77.8169 71.6633 77.6652V64.3888C71.6547 64.0882 71.5294 63.8027 71.3137 63.5931C71.0981 63.3834 70.809 63.2662 70.5083 63.2662C70.2075 63.2662 69.9189 63.3834 69.7033 63.5931C69.4876 63.8027 69.3618 64.0882 69.3533 64.3888V76.5071H59.2232V50.6006C59.2232 50.2944 59.1015 50.0008 58.885 49.7844C58.6685 49.5679 58.3749 49.4461 58.0687 49.4461H54.0056L64.2887 34.0213L74.5723 49.4461H70.5078C70.2017 49.4461 69.908 49.5679 69.6915 49.7844C69.475 50.0008 69.3533 50.2944 69.3533 50.6006V58.9978C69.3618 59.2984 69.4876 59.5839 69.7033 59.7935C69.9189 60.0031 70.2075 60.1204 70.5083 60.1204C70.809 60.1204 71.0981 60.0031 71.3137 59.7935C71.5294 59.5839 71.6547 59.2984 71.6633 58.9978V51.755H76.7287C76.9378 51.7551 77.143 51.6984 77.3223 51.591C77.5016 51.4836 77.6484 51.3295 77.747 51.1452C77.8456 50.9609 77.8925 50.7534 77.8824 50.5446C77.8722 50.3359 77.8055 50.1338 77.6895 49.9599V49.9635ZM36.4915 59.5402L35.3732 60.4721C35.1222 60.6814 34.8231 60.8246 34.5025 60.8883C34.1819 60.952 33.8501 60.9343 33.5382 60.8368C33.2262 60.7393 32.9437 60.5651 32.7164 60.3301C32.4891 60.0952 32.3245 59.807 32.2374 59.492L31.5605 57.0488L33.9511 56.408C34.1454 57.0726 34.4702 57.6919 34.9064 58.2297C35.3426 58.7675 35.8813 59.2129 36.4915 59.5402ZM43.9322 56.408L46.3232 57.0488L45.6463 59.4911C45.5594 59.8063 45.395 60.0948 45.1678 60.3299C44.9405 60.5651 44.6577 60.7395 44.3455 60.8371C44.0334 60.9347 43.7019 60.9525 43.3812 60.8887C43.0604 60.825 42.7607 60.6817 42.5096 60.4721L41.3922 59.5402C42.0021 59.2126 42.5408 58.7671 42.9768 58.2293C43.4129 57.6916 43.7377 57.0724 43.9322 56.408ZM51.7821 38.6307C51.7816 38.9842 51.6409 39.3231 51.3909 39.573C51.141 39.823 50.8022 39.9636 50.4487 39.9641H49.1154V37.2973H50.4487C50.8022 37.2978 51.141 37.4385 51.3909 37.6884C51.6409 37.9384 51.7816 38.2772 51.7821 38.6307ZM28.5886 31.9443C28.5886 29.2391 29.6635 26.6448 31.5764 24.732C33.4892 22.8192 36.0832 21.7445 38.7884 21.7445C41.4935 21.7445 44.088 22.8192 46.0008 24.732C47.9137 26.6448 48.9881 29.2391 48.9881 31.9443V34.9876H45.1659C44.6475 34.9873 44.1508 34.7813 43.7841 34.4148C43.4175 34.0484 43.211 33.5513 43.2105 33.0329C43.2105 32.8813 43.1807 32.7312 43.1226 32.5911C43.0646 32.4511 42.9795 32.3238 42.8723 32.2166C42.7651 32.1094 42.6379 32.0243 42.4978 31.9663C42.3578 31.9083 42.2075 31.8785 42.0559 31.8785C41.9043 31.8785 41.7546 31.9083 41.6145 31.9663C41.4744 32.0243 41.3468 32.1094 41.2396 32.2166C41.1324 32.3238 41.0477 32.4511 40.9897 32.5911C40.9317 32.7312 40.9018 32.8813 40.9018 33.0329C40.9014 33.5513 40.6949 34.0484 40.3282 34.4148C39.9615 34.7813 39.4643 34.9873 38.9459 34.9876H28.5931L28.5886 31.9443ZM26.1007 38.6307C26.1012 38.2772 26.2419 37.9384 26.4919 37.6884C26.7418 37.4385 27.0806 37.2978 27.434 37.2973H28.7679V39.9641H27.434C27.0806 39.9636 26.7418 39.823 26.4919 39.573C26.2419 39.3231 26.1012 38.9842 26.1007 38.6307ZM31.0774 42.0513V37.2973H38.9414C39.3396 36.8713 39.8213 36.5315 40.3563 36.2992C40.8913 36.067 41.4682 35.9472 42.0514 35.9472C42.6346 35.9472 43.2116 36.067 43.7465 36.2992C44.2815 36.5315 44.7632 36.8713 45.1614 37.2973H46.8063V42.0513C46.8063 44.1371 45.978 46.1375 44.5031 47.6123C43.0282 49.0872 41.0276 49.9159 38.9419 49.9159C36.8561 49.9159 34.8559 49.0872 33.3811 47.6123C31.9062 46.1375 31.0774 44.1371 31.0774 42.0513ZM38.9414 52.2252C39.9194 52.2251 40.8925 52.0836 41.83 51.8051V54.9578C41.83 55.3371 41.7551 55.7127 41.61 56.0631C41.4648 56.4135 41.252 56.732 40.9838 57.0002C40.7156 57.2684 40.3975 57.4811 40.047 57.6263C39.6966 57.7714 39.3207 57.8462 38.9414 57.8462C38.5621 57.8462 38.1866 57.7714 37.8362 57.6263C37.4858 57.4811 37.1672 57.2684 36.899 57.0002C36.6308 56.732 36.418 56.4135 36.2728 56.0631C36.1277 55.7127 36.0532 55.3371 36.0532 54.9578V51.8051C36.9907 52.0837 37.9634 52.2252 38.9414 52.2252ZM20.9695 67.3532C20.9718 65.212 21.679 63.131 22.9825 61.4322C24.286 59.7333 26.1129 58.5111 28.1806 57.9546L29.3307 57.6458L30.0121 60.1077C30.2025 60.7945 30.5618 61.4226 31.0575 61.9346C31.5532 62.4467 32.1693 62.8264 32.8495 63.039C33.5297 63.2517 34.2526 63.2905 34.9517 63.152C35.6507 63.0134 36.3038 62.702 36.8515 62.246L38.9414 60.5046L41.0313 62.246C41.7954 62.885 42.7595 63.2355 43.7556 63.2363C44.1889 63.2358 44.6201 63.1697 45.0337 63.0406C45.7149 62.8291 46.3316 62.4495 46.8276 61.937C47.3236 61.4245 47.6825 60.7954 47.8716 60.1077L48.5535 57.6468L49.7021 57.9546C51.77 58.511 53.5971 59.7331 54.9007 61.4319C56.2044 63.1308 56.9123 65.2118 56.9146 67.3532V76.5071H51.759V69.4405C51.759 69.1343 51.6373 68.8408 51.4208 68.6243C51.2043 68.4078 50.9107 68.286 50.6045 68.286C50.2983 68.286 50.0047 68.4078 49.7882 68.6243C49.5717 68.8408 49.45 69.1343 49.45 69.4405V76.5071H28.4292V69.4405C28.4292 69.1342 28.3076 68.8405 28.091 68.6239C27.8744 68.4073 27.5805 68.2856 27.2742 68.2856C26.9679 68.2856 26.6745 68.4073 26.4579 68.6239C26.2413 68.8405 26.1192 69.1342 26.1192 69.4405V76.5071H20.965L20.9695 67.3532Z" fill="#1A1061"/>
</svg>
