<svg width="138" height="138" viewBox="0 0 138 138" fill="none" xmlns="http://www.w3.org/2000/svg">
<g opacity="0.5" clip-path="url(#clip0_593_227)" filter="url(#filter0_df_593_227)">
<path d="M108.6 42.3335C123.055 64.4776 116.821 94.1466 94.6771 108.601C72.533 123.056 42.8639 116.822 28.4094 94.678C13.9549 72.5339 20.1885 42.8648 42.3326 28.4103C64.4767 13.9558 94.1457 20.1894 108.6 42.3335Z" stroke="#AFCDFB" stroke-width="4"/>
<path d="M79.7077 75.5718C79.1701 74.6839 78.6229 74.0159 78.0029 73.4634C77.3307 72.9426 76.6172 72.5894 75.6948 72.3628C74.8041 72.1883 73.8089 72.0771 72.6364 72.1447C71.4639 72.2122 70.1347 72.3746 68.5444 72.6951C65.8765 73.2398 63.3858 73.6058 61.0725 73.7931C58.7591 73.9804 56.6436 73.9051 54.7261 73.5672C52.8085 73.2294 51.0256 72.5245 49.4296 71.4209C47.8652 70.3696 46.4766 68.7836 45.2434 66.7467C44.1682 64.9709 43.5535 63.1304 43.3264 61.3408C43.0677 59.4989 43.2489 57.6762 43.7655 55.936C44.3343 54.1641 45.1547 52.454 46.4465 50.8153C47.6861 49.2083 49.2611 47.6837 51.2032 46.2937L47.26 39.5452L52.6711 36.3403L56.6776 43.1933C58.7682 42.2844 60.8396 41.8153 62.8808 41.6501C64.922 41.4848 66.8601 41.7388 68.6843 42.276C70.54 42.8654 72.2089 43.8535 73.7953 45.177C75.3818 46.5004 76.7813 48.2226 77.994 50.3433L68.2368 56.0368C66.7712 53.4982 65.1105 51.9342 63.2547 51.3448C61.399 50.7554 59.5571 51.0141 57.6452 52.1003C56.6529 52.7011 55.8283 53.3431 55.2552 54.047C54.6821 54.7509 54.2767 55.4959 54.1229 56.3028C53.9374 57.0575 53.9197 57.8534 54.1218 58.6588C54.324 59.4643 54.5784 60.2381 55.0528 61.0216C55.5271 61.805 56.0426 62.4207 56.631 62.921C57.2194 63.4212 57.9329 63.7744 58.8236 63.9488C59.6621 64.1549 60.7095 64.2344 61.882 64.1669C63.0862 64.1516 64.5514 63.9782 66.1734 63.7099C68.8207 63.2491 71.343 62.9353 73.6247 62.6958C75.9381 62.5085 78.0535 62.5838 80.0027 62.9739C81.9519 63.364 83.7348 64.0689 85.2992 65.1202C86.8636 66.1715 88.2522 67.7575 89.4854 69.7944C90.54 71.6541 91.2069 73.4629 91.4134 75.3364C91.6198 77.2099 91.4909 79.001 90.8905 80.7206C90.3217 82.4925 89.4174 84.182 88.1778 85.789C86.886 87.4277 85.2793 88.9001 83.3895 90.2584L87.0481 96.5369L81.6892 99.7102L78.0622 93.4839C76.0555 94.4134 74.0267 95.0708 71.8921 95.4353C69.7891 95.8521 67.7052 95.8291 65.62 95.45C63.5869 95.0393 61.6047 94.241 59.7667 92.8557C57.9081 91.5543 56.2143 89.582 54.7803 87.0956L64.5897 81.3705C65.4751 82.8329 66.3908 83.9916 67.4094 84.7309C68.4281 85.4703 69.4247 85.9375 70.4832 86.1531C71.5416 86.3688 72.578 86.3123 73.624 86.0358C74.67 85.7594 75.6211 85.3263 76.5929 84.8093C77.6375 84.1768 78.5143 83.5032 79.1396 82.7677C79.765 82.0322 80.2226 81.2555 80.5125 80.4376C80.7502 79.6513 80.8202 78.8238 80.7541 78.0073C80.468 77.1813 80.1298 76.3868 79.7077 75.5718Z" fill="#AFCDFB"/>
</g>
<defs>
<filter id="filter0_df_593_227" x="-9" y="-9" width="155.013" height="159.013" filterUnits="userSpaceOnUse" color-interpolation-filters="sRGB">
<feFlood flood-opacity="0" result="BackgroundImageFix"/>
<feColorMatrix in="SourceAlpha" type="matrix" values="0 0 0 0 0 0 0 0 0 0 0 0 0 0 0 0 0 0 127 0" result="hardAlpha"/>
<feOffset dy="4"/>
<feGaussianBlur stdDeviation="4.5"/>
<feColorMatrix type="matrix" values="0 0 0 0 0 0 0 0 0 0 0 0 0 0 0 0 0 0 0.25 0"/>
<feBlend mode="normal" in2="BackgroundImageFix" result="effect1_dropShadow_593_227"/>
<feBlend mode="normal" in="SourceGraphic" in2="effect1_dropShadow_593_227" result="shape"/>
<feGaussianBlur stdDeviation="4.5" result="effect2_foregroundBlur_593_227"/>
</filter>
<clipPath id="clip0_593_227">
<rect width="99.7653" height="99.7653" fill="white" transform="translate(0 51.6714) rotate(-31.1934)"/>
</clipPath>
</defs>
</svg>
