<svg width="177" height="177" viewBox="0 0 177 177" fill="none" xmlns="http://www.w3.org/2000/svg">
<g opacity="0.5" clip-path="url(#clip0_593_232)" filter="url(#filter0_df_593_232)">
<path d="M154.237 105.903C144.391 142.442 106.788 164.082 70.2488 154.236C33.7093 144.39 12.07 106.787 21.916 70.2473C31.762 33.7078 69.3648 12.0684 105.904 21.9144C142.444 31.7604 164.083 69.3633 154.237 105.903Z" stroke="#AFCDFB" stroke-width="4"/>
<path d="M91.1811 106.541C91.6107 105.138 91.7994 103.932 91.7977 102.758C91.7135 101.558 91.4137 100.473 90.7838 99.2875C90.1285 98.1842 89.3082 97.0303 88.1325 95.8579C86.9568 94.6855 85.5335 93.4373 83.6975 92.0628C80.6099 89.7634 77.8778 87.4826 75.5011 85.2204C73.1244 82.9581 71.2109 80.6571 69.7607 78.3174C68.3104 75.9776 67.374 73.4341 67.0338 70.712C66.6683 68.0725 67.0322 65.1146 68.0177 61.8957C68.8768 59.0894 70.2379 56.7076 71.9106 54.7823C73.6086 52.7745 75.7007 51.2485 78.0219 50.1536C80.4256 49.0841 83.0011 48.3379 85.9456 48.1561C88.8074 47.9489 91.8984 48.173 95.1931 48.9109L98.5926 38.3967L107.069 41.0819L103.619 51.7612C106.546 53.1088 108.992 54.8506 111.089 56.8467C113.186 58.8428 114.744 61.1253 115.896 63.5543C117.023 66.0658 117.554 68.7559 117.653 71.675C117.752 74.5942 117.255 77.6919 116.162 80.9681L100.968 76.0458C102.264 72.1093 102.348 68.8852 101.221 66.3737C100.095 63.8622 98.0867 62.1642 95.1406 61.172C93.5724 60.6919 92.1188 60.4274 90.8369 60.4863C89.555 60.5452 88.3877 60.8198 87.3922 61.4177C86.4219 61.9332 85.5662 62.6642 84.9076 63.6361C84.2489 64.608 83.6728 65.6052 83.2938 66.8432C82.9148 68.0813 82.7514 69.2048 82.7783 70.2963C82.8052 71.3879 83.105 72.4726 83.7602 73.576C84.3329 74.654 85.2358 75.8332 86.4115 77.0056C87.5619 78.2605 89.1251 79.6418 90.9358 81.0989C93.9155 83.4555 96.6224 85.8188 99.0243 87.9986C101.401 90.2608 103.315 92.5618 104.74 94.9841C106.164 97.4064 107.101 99.9499 107.466 102.589C107.832 105.229 107.468 108.187 106.483 111.406C105.516 114.269 104.237 116.676 102.457 118.659C100.676 120.641 98.6664 122.193 96.288 123.18C93.8842 124.249 91.2514 124.888 88.3896 125.095C85.4452 125.277 82.3795 124.97 79.1672 124.257L75.9952 134.029L67.6017 131.369L70.7484 121.68C67.8782 120.44 65.2741 118.921 62.8788 117.014C60.4583 115.19 58.5196 112.971 56.9548 110.416C55.4725 107.886 54.4468 105.044 54.1757 101.802C53.7967 98.6162 54.2802 94.9728 55.5504 91.1188L70.8265 96.0664C70.119 98.3774 69.7602 100.434 69.9404 102.204C70.1206 103.975 70.5669 105.466 71.3367 106.785C72.1064 108.103 73.1423 109.143 74.4191 109.985C75.6959 110.827 77.0485 111.422 78.5089 111.959C80.1597 112.465 81.6959 112.754 83.0603 112.721C84.4247 112.687 85.6745 112.438 86.8099 111.973C87.8627 111.483 88.8009 110.777 89.5994 109.938C90.2007 108.859 90.7196 107.754 91.1811 106.541Z" fill="#AFCDFB"/>
</g>
<defs>
<filter id="filter0_df_593_232" x="-9" y="-9" width="194.155" height="198.155" filterUnits="userSpaceOnUse" color-interpolation-filters="sRGB">
<feFlood flood-opacity="0" result="BackgroundImageFix"/>
<feColorMatrix in="SourceAlpha" type="matrix" values="0 0 0 0 0 0 0 0 0 0 0 0 0 0 0 0 0 0 127 0" result="hardAlpha"/>
<feOffset dy="4"/>
<feGaussianBlur stdDeviation="4.5"/>
<feColorMatrix type="matrix" values="0 0 0 0 0 0 0 0 0 0 0 0 0 0 0 0 0 0 0.25 0"/>
<feBlend mode="normal" in2="BackgroundImageFix" result="effect1_dropShadow_593_232"/>
<feBlend mode="normal" in="SourceGraphic" in2="effect1_dropShadow_593_232" result="shape"/>
<feGaussianBlur stdDeviation="4.5" result="effect2_foregroundBlur_593_232"/>
</filter>
<clipPath id="clip0_593_232">
<rect width="141.045" height="141.045" fill="white" transform="translate(41.2891) rotate(17.0219)"/>
</clipPath>
</defs>
</svg>
