<svg width="36" height="29" viewBox="0 0 36 29" fill="none" xmlns="http://www.w3.org/2000/svg">
<g id="f-email 1" clip-path="url(#clip0_305_1150)">
<path id="Path 27" d="M34.662 8.13309C34.5623 6.97426 34.1926 5.85488 33.5825 4.86461C32.9725 3.87434 32.139 3.0407 31.1488 2.43047C28.8582 1.33868 26.3647 0.737453 23.8281 0.665317L23.3399 0.616296C18.4032 0.102922 13.4207 0.232625 8.51742 1.00215C7.37925 1.15817 6.25851 1.42228 5.17045 1.79092C3.92651 2.19026 2.81548 2.92231 1.95776 3.9078C0.886179 5.42826 0.30257 7.23877 0.28434 9.0988C0.0830929 11.1182 -0.000198739 13.1475 0.0349084 15.1766C0.0583584 15.9952 0.0903107 16.9503 0.169188 17.8883C0.248993 20.0495 0.857234 22.1583 1.94071 24.03C2.69683 25.0594 3.67526 25.9052 4.80313 26.5046C5.931 27.1039 7.17938 27.4415 8.45561 27.4921C11.3616 27.8844 14.2878 28.11 17.2196 28.1679H17.4071C20.3449 28.1418 23.2769 27.9003 26.1795 27.4452C28.4289 27.2941 30.5879 26.501 32.4002 25.1599C33.9752 23.4524 34.8172 21.195 34.7451 18.8732C35.1542 15.3031 35.1263 11.6964 34.662 8.13309ZM32.914 18.7197C32.9973 20.5666 32.3763 22.3762 31.1766 23.7828C29.6262 24.8714 27.8039 25.5083 25.913 25.6225C23.0391 26.0688 20.1363 26.3032 17.228 26.3239C14.3661 26.2656 11.5098 26.0442 8.67304 25.6609C7.66281 25.653 6.66828 25.4104 5.76781 24.9524C4.86734 24.4944 4.08551 23.8335 3.48415 23.0217C2.57389 21.403 2.06715 19.5887 2.00681 17.7326C1.93007 16.8415 1.90028 15.9206 1.87683 15.1254C1.84415 13.1682 1.92532 11.2107 2.11988 9.26295C2.11583 7.77563 2.55352 6.32062 3.37758 5.08246C4.02797 4.35478 4.86348 3.81695 5.79513 3.52621C6.7714 3.1986 7.77629 2.96378 8.79665 2.82485C13.5455 2.07921 18.371 1.9531 23.1523 2.44966L23.6491 2.49868C25.9337 2.55931 28.182 3.08371 30.2577 4.04C30.9998 4.52138 31.6201 5.1683 32.0699 5.92993C32.5197 6.69156 32.7867 7.54712 32.85 8.42939C33.2886 11.8441 33.3115 15.2995 32.9182 18.7197H32.914Z" fill="#545D75"/>
<path id="Path 28" d="M27.3438 6.95278L17.9255 14.3779C17.8184 14.4751 17.6789 14.529 17.5343 14.529C17.3896 14.529 17.2502 14.4751 17.1431 14.3779L7.72484 6.95278C7.6298 6.8779 7.52084 6.82247 7.40437 6.78965C7.2879 6.75684 7.16619 6.74729 7.04603 6.76155C6.92587 6.7758 6.80964 6.81358 6.70408 6.87273C6.59853 6.93188 6.5056 7.01124 6.43071 7.10629C6.35582 7.20133 6.30049 7.3102 6.26768 7.42667C6.23486 7.54313 6.22532 7.66491 6.23957 7.78507C6.25382 7.90523 6.29154 8.02142 6.35069 8.12698C6.40984 8.23254 6.4892 8.3254 6.58425 8.40029L16.0027 15.8254C16.434 16.1817 16.976 16.3766 17.5354 16.3766C18.0949 16.3766 18.6369 16.1817 19.0682 15.8254L28.4865 8.40029C28.6785 8.24905 28.8025 8.02774 28.8313 7.78507C28.8601 7.54239 28.7913 7.29824 28.64 7.10629C28.4888 6.91434 28.2675 6.79033 28.0249 6.76155C27.7822 6.73276 27.538 6.80154 27.346 6.95278H27.3438Z" fill="#545D75"/>
</g>
<defs>
<clipPath id="clip0_305_1150">
<rect width="35.0172" height="27.8607" fill="white" transform="translate(0.0258789 0.30896)"/>
</clipPath>
</defs>
</svg>
