<svg width="36" height="36" viewBox="0 0 36 36" fill="none" xmlns="http://www.w3.org/2000/svg">
<g id="f-telephone 1" clip-path="url(#clip0_305_1147)">
<g id="telephone" opacity="0.85">
<path id="Path 101" opacity="0.85" d="M7.22606 23.4505C10.565 27.4679 14.7238 30.7256 19.4239 33.0054C21.5509 34.1065 23.867 34.7951 26.2501 35.035C26.4147 35.035 26.5726 35.0485 26.7372 35.0485C27.561 35.0731 28.3803 34.9174 29.1375 34.5921C29.8948 34.2668 30.5718 33.7799 31.1211 33.1655C31.1327 33.155 31.1425 33.1428 31.1504 33.1294C31.5851 32.6276 32.0466 32.1495 32.5328 31.6974C32.8688 31.3749 33.2094 31.0389 33.5431 30.6939C33.904 30.3685 34.1923 29.9707 34.3892 29.5265C34.5862 29.0822 34.6873 28.6015 34.686 28.1155C34.6847 27.6296 34.5811 27.1494 34.3818 26.7062C34.1826 26.263 33.8922 25.8667 33.5296 25.5432L29.2223 21.2202C28.9041 20.8642 28.5161 20.5774 28.0824 20.3776C27.6487 20.1778 27.1785 20.0693 26.7011 20.0588C26.2207 20.0714 25.7476 20.1798 25.3096 20.3776C24.8716 20.5755 24.4776 20.8589 24.1506 21.2112L21.5866 23.7752C21.361 23.6399 21.1062 23.5182 20.8785 23.4031C20.609 23.273 20.3463 23.1292 20.0914 22.9724C17.6256 21.373 15.4359 19.3837 13.608 17.0821C12.7261 16.0189 11.989 14.8436 11.416 13.5867C12.0926 12.9778 12.7195 12.3396 13.3284 11.7172C13.5539 11.4917 13.7659 11.2662 13.9869 11.0407C14.3461 10.7114 14.6362 10.3139 14.8403 9.87138C15.0443 9.42884 15.1582 8.95011 15.1753 8.46309C15.1587 7.97512 15.0441 7.49548 14.8384 7.05267C14.6327 6.60987 14.34 6.21295 13.9778 5.88551L11.8445 3.75219C11.5942 3.50187 11.3574 3.25832 11.1139 3.008C10.6493 2.52992 10.1554 2.02703 9.66834 1.57601C9.34195 1.23454 8.95104 0.961235 8.51826 0.771942C8.08548 0.582648 7.61944 0.481129 7.14713 0.473267C6.18445 0.494759 5.26864 0.893148 4.59661 1.58278L1.91755 4.26184C0.960591 5.19827 0.377733 6.45137 0.278091 7.78656C0.181313 9.7467 0.520988 11.7039 1.27259 13.5168C2.66228 17.15 4.67717 20.512 7.22606 23.4505ZM2.0258 7.9354C2.09489 7.01164 2.50003 6.1452 3.16462 5.49989L5.83015 2.83661C6.17313 2.46992 6.64561 2.25148 7.14713 2.22774C7.39293 2.23949 7.63384 2.30066 7.85547 2.4076C8.0771 2.51454 8.2749 2.66505 8.43705 2.85014C8.91739 3.30116 9.36841 3.75219 9.85551 4.25507C10.0991 4.50539 10.3494 4.75571 10.5997 5.01504L12.733 7.14837C12.9289 7.31568 13.0896 7.52026 13.2058 7.75022C13.3219 7.98018 13.3912 8.23093 13.4096 8.4879C13.3912 8.74487 13.3219 8.99562 13.2058 9.22558C13.0896 9.45554 12.9289 9.66012 12.733 9.82743C12.5075 10.0529 12.282 10.2785 12.0565 10.504C11.38 11.1805 10.7666 11.8142 10.0788 12.4231L10.0427 12.4591C9.82449 12.6536 9.67261 12.9114 9.60831 13.1965C9.54401 13.4816 9.57052 13.7797 9.68412 14.049C9.68412 14.0715 9.69765 14.0851 9.70667 14.1054C10.349 15.5818 11.1995 16.9586 12.2324 18.1939C14.1744 20.6541 16.5071 22.7788 19.1375 24.4833C19.4432 24.6719 19.7586 24.8443 20.0824 24.9998C20.3519 25.1299 20.6145 25.2737 20.8694 25.4305L20.9484 25.4733C21.162 25.5881 21.4004 25.6492 21.6429 25.6515C21.8441 25.645 22.042 25.5986 22.2251 25.5149C22.4082 25.4313 22.5729 25.3122 22.7096 25.1644L25.3909 22.4831C25.5564 22.2955 25.7574 22.1426 25.9823 22.0331C26.2071 21.9236 26.4514 21.8596 26.7011 21.8449C26.9445 21.8601 27.1824 21.9244 27.4002 22.0341C27.618 22.1438 27.8114 22.2965 27.9685 22.4831L32.287 26.7948C32.4895 26.9583 32.6524 27.1653 32.7636 27.4006C32.8749 27.6358 32.9315 27.8931 32.9293 28.1533C32.9272 28.4135 32.8662 28.6699 32.7511 28.9032C32.636 29.1366 32.4696 29.3409 32.2645 29.5009C31.9645 29.8234 31.6488 30.1301 31.3128 30.4526C30.7869 30.944 30.2871 31.4627 29.8154 32.0064C29.4301 32.4358 28.9549 32.7752 28.4237 33.0004C27.8926 33.2257 27.3183 33.3313 26.7417 33.3098C26.6199 33.3098 26.4914 33.3098 26.3696 33.2963C24.2137 33.0741 22.119 32.4475 20.1952 31.4494C15.7201 29.279 11.7616 26.1756 8.58589 22.3478C6.16934 19.5587 4.25494 16.3716 2.92784 12.9282C2.26091 11.3513 1.9528 9.64594 2.0258 7.9354Z" fill="#545D75" stroke="#545D75" stroke-width="0.2"/>
</g>
</g>
<defs>
<clipPath id="clip0_305_1147">
<rect width="35.0082" height="35.0172" fill="white" transform="translate(0.0258789 0.247803)"/>
</clipPath>
</defs>
</svg>
