<svg width="36" height="45" viewBox="0 0 36 45" fill="none" xmlns="http://www.w3.org/2000/svg">
<g id="f-user 1" clip-path="url(#clip0_305_1143)">
<g id="Group 342" opacity="0.847">
<path id="Path 25" opacity="0.847" d="M17.5326 22.6772C19.7322 22.6772 21.8824 22.0249 23.7113 20.8029C25.5402 19.5808 26.9656 17.8439 27.8073 15.8118C28.6491 13.7796 28.8693 11.5434 28.4402 9.38609C28.0111 7.22875 26.952 5.2471 25.3966 3.69174C23.8413 2.13638 21.8595 1.07715 19.7022 0.648028C17.5448 0.218906 15.3087 0.43914 13.2765 1.28089C11.2443 2.12265 9.50738 3.54814 8.28535 5.37705C7.06331 7.20595 6.41113 9.35616 6.41113 11.5558C6.41477 14.5042 7.58759 17.3309 9.67247 19.4158C11.7573 21.5007 14.5841 22.6735 17.5326 22.6772ZM17.5326 2.93098C19.2384 2.93098 20.9058 3.43683 22.3242 4.38453C23.7425 5.33223 24.8479 6.67921 25.5007 8.25518C26.1535 9.83116 26.3244 11.5653 25.9916 13.2384C25.6588 14.9114 24.8373 16.4482 23.6311 17.6544C22.4249 18.8606 20.8881 19.682 19.2151 20.0148C17.5421 20.3476 15.8079 20.1768 14.2319 19.524C12.656 18.8712 11.309 17.7658 10.3613 16.3474C9.41364 14.9291 8.90775 13.2616 8.90775 11.5558C8.91079 9.26927 9.82046 7.07728 11.4373 5.46048C13.0541 3.84368 15.2461 2.93401 17.5326 2.93098Z" fill="#545D75"/>
<path id="Path 26" opacity="0.847" d="M27.1078 27.5764H7.96228C5.85862 27.5788 3.84185 28.4156 2.35433 29.9031C0.866815 31.3906 0.030015 33.4074 0.0275879 35.5111V36.3044C0.030015 38.408 0.866815 40.4248 2.35433 41.9123C3.84185 43.3998 5.85862 44.2366 7.96228 44.2391H27.1078C29.2115 44.2366 31.2283 43.3998 32.7158 41.9123C34.2033 40.4248 35.0401 38.408 35.0425 36.3044V35.5111C35.0401 33.4074 34.2033 31.3906 32.7158 29.9031C31.2283 28.4156 29.2115 27.5788 27.1078 27.5764ZM32.5458 36.3044C32.544 37.7461 31.9704 39.1282 30.951 40.1476C29.9316 41.167 28.5495 41.7406 27.1078 41.7424H7.96228C6.52058 41.7406 5.13842 41.167 4.11898 40.1476C3.09954 39.1282 2.52603 37.7461 2.52421 36.3044V35.5111C2.52603 34.0694 3.09954 32.6873 4.11898 31.6678C5.13842 30.6484 6.52058 30.0749 7.96228 30.073H27.1078C28.5495 30.0749 29.9316 30.6484 30.951 31.6678C31.9704 32.6873 32.544 34.0694 32.5458 35.5111V36.3044Z" fill="#545D75"/>
</g>
</g>
<defs>
<clipPath id="clip0_305_1143">
<rect width="35.0172" height="43.8048" fill="white" transform="translate(0.0258789 0.434326)"/>
</clipPath>
</defs>
</svg>
