<svg width="86" height="86" viewBox="0 0 86 86" fill="none" xmlns="http://www.w3.org/2000/svg">
<g filter="url(#filter0_d)">
<path d="M71.7371 60.1335L68.9114 59.154C70.4933 57.903 71.5107 55.9705 71.5107 53.804V51.7361C71.5107 47.9736 68.4446 44.9122 64.6763 44.9122C60.908 44.9122 57.842 47.9736 57.842 51.7361V53.804C57.842 55.9705 58.8599 57.903 60.4418 59.154L57.6156 60.1335C55.803 60.7622 54.2793 61.9151 53.1882 63.3852H45.5544V60.3772C45.5544 56.4179 43.0374 52.8852 39.2915 51.5868L36.4653 50.6072C38.0471 49.3562 39.0651 47.4238 39.0651 45.2572V43.1893C39.0651 39.4263 35.999 36.3655 32.2307 36.3655C28.4624 36.3655 25.3964 39.4268 25.3964 43.1893V45.2572C25.3964 47.4238 26.4143 49.3562 27.9957 50.6072L25.17 51.5868C21.4241 52.8852 18.9071 56.4179 18.9071 60.3772V63.3852H9.03554C8.46356 63.3852 8 63.8481 8 64.4192V72.9659C8 73.537 8.46356 73.9999 9.03554 73.9999H52.1126C52.1591 73.9999 52.205 73.9956 52.2504 73.9898C52.2958 73.9956 52.3417 73.9999 52.3887 73.9999H76.9645C77.5364 73.9999 78 73.537 78 72.9659V68.924C78 64.9652 75.4835 61.4325 71.7371 60.1335ZM59.9131 51.7361C59.9131 49.1136 62.0498 46.9801 64.6763 46.9801C67.3028 46.9801 69.4396 49.1136 69.4396 51.7361V53.804C69.4396 56.4265 67.3028 58.56 64.6763 58.56C62.0498 58.56 59.9131 56.4265 59.9131 53.804V51.7361ZM27.4675 43.1893C27.4675 40.5669 29.6042 38.4334 32.2307 38.4334C34.8572 38.4334 36.994 40.5669 36.994 43.1893V45.2572C36.994 47.8797 34.8572 50.0132 32.2307 50.0132C29.6042 50.0132 27.4675 47.8797 27.4675 45.2572V43.1893ZM34.4033 52.0811L35.4094 52.4298L32.2307 57.9366L29.052 52.4298L30.0582 52.0811H34.4033ZM20.9781 60.3772C20.9781 57.2978 22.936 54.55 25.8493 53.54L27.0605 53.1204L31.3335 60.5239C31.5183 60.8443 31.8606 61.0416 32.2307 61.0416C32.6008 61.0416 32.9432 60.8443 33.1279 60.5239L37.4009 53.1204L38.6122 53.54C41.5255 54.55 43.4828 57.2978 43.4828 60.3772V63.3852H20.9781V60.3772ZM10.0711 65.4531H52.0277C51.5909 66.5351 51.3532 67.7093 51.3532 68.924V71.932H10.0711V65.4531ZM75.9289 71.932H53.4243V68.924C53.4243 65.8445 55.3816 63.0973 58.2949 62.0868L62.5038 60.6279H66.8489L71.0578 62.0868C73.9716 63.0973 75.9289 65.8445 75.9289 68.924V71.932Z" fill="#1A1061"/>
<path d="M71.4418 11.3777H60.923C60.351 11.3777 59.8874 11.8369 59.8874 12.4024C59.8874 12.9684 60.351 13.4271 60.923 13.4271H71.4418C73.9161 13.4271 75.9289 15.419 75.9289 17.868V32.0768C75.9289 34.5253 73.9161 36.5172 71.4418 36.5172H57.2209C56.6489 36.5172 56.1853 36.9759 56.1853 37.5419V41.8998L51.0499 36.8174C50.8555 36.625 50.5922 36.5172 50.3177 36.5172H41.8956C39.4213 36.5172 37.4079 34.5253 37.4079 32.0768V17.8675C37.4079 15.419 39.4207 13.4271 41.8956 13.4271H56.0817C56.6537 13.4271 57.1173 12.9684 57.1173 12.4024C57.1173 11.8364 56.6537 11.3777 56.0817 11.3777H50.6627V10.4898C50.6627 6.91143 47.7205 4 44.1044 4H14.5582C10.9421 4 8 6.91143 8 10.4898V12.7554C8 13.3214 8.46356 13.7802 9.03554 13.7802C9.60751 13.7802 10.0711 13.3214 10.0711 12.7554V10.4898C10.0711 8.04133 12.0839 6.04947 14.5582 6.04947H44.1044C46.5787 6.04947 48.5916 8.04133 48.5916 10.4898V11.3777H41.8956C38.2795 11.3777 35.3373 14.2891 35.3373 17.8675V29.139H24.4992C23.9272 29.139 23.4636 29.5977 23.4636 30.1637V34.5216L18.3281 29.4392C18.1337 29.2468 17.8705 29.139 17.5959 29.139H14.5582C12.0839 29.139 10.0711 27.1471 10.0711 24.6987V17.5202C10.0711 16.9542 9.60751 16.4955 9.03554 16.4955C8.46356 16.4955 8 16.9542 8 17.5202V24.6987C8 28.2776 10.9421 31.1885 14.5582 31.1885H17.1666L23.767 37.72C23.9651 37.9161 24.23 38.0202 24.4992 38.0197C24.6327 38.0197 24.7673 37.9943 24.8954 37.942C25.2821 37.7834 25.5347 37.4098 25.5347 36.9955V31.1885H35.3373V32.0768C35.3373 35.6552 38.2795 38.5661 41.8956 38.5661H49.8888L56.4887 45.0977C56.6868 45.2937 56.9517 45.3979 57.2209 45.3979C57.3544 45.3979 57.489 45.3725 57.6172 45.3196C58.0038 45.1611 58.2564 44.7874 58.2564 44.3731V38.5661H71.4418C75.0579 38.5661 78 35.6552 78 32.0768V17.8675C78 14.2891 75.0579 11.3777 71.4418 11.3777Z" fill="#25BDBE"/>
</g>
<defs>
<filter id="filter0_d" x="0" y="0" width="86" height="85.9999" filterUnits="userSpaceOnUse" color-interpolation-filters="sRGB">
<feFlood flood-opacity="0" result="BackgroundImageFix"/>
<feColorMatrix in="SourceAlpha" type="matrix" values="0 0 0 0 0 0 0 0 0 0 0 0 0 0 0 0 0 0 127 0"/>
<feOffset dy="4"/>
<feGaussianBlur stdDeviation="4"/>
<feColorMatrix type="matrix" values="0 0 0 0 0 0 0 0 0 0 0 0 0 0 0 0 0 0 0.18 0"/>
<feBlend mode="normal" in2="BackgroundImageFix" result="effect1_dropShadow"/>
<feBlend mode="normal" in="SourceGraphic" in2="effect1_dropShadow" result="shape"/>
</filter>
</defs>
</svg>
