<svg width="128" height="128" viewBox="0 0 128 128" fill="none" xmlns="http://www.w3.org/2000/svg">
<g id="Group 3443">
<g id="Ellipse 303" filter="url(#filter0_di_305_1173)">
<circle cx="64" cy="60" r="60" fill="white"/>
<circle cx="64" cy="60" r="58" stroke="#25BDBE" stroke-width="4"/>
</g>
<g id="Group 3264">
<path id="Vector" d="M81.0676 66.1998C81.709 65.7742 82.2685 65.3898 82.8553 65.0054C85.3117 68.4926 87.8227 71.9111 87.5498 76.5241C86.8674 76.5241 86.1851 76.5241 85.38 76.5241C85.6938 72.3779 83.1965 69.4124 81.0676 66.1998Z" fill="#22274E"/>
<path id="Vector_2" d="M42.0819 68.2872C42.696 68.6991 43.2555 69.0835 43.8832 69.4954C42 72.2549 41.3586 75.2479 41.9591 78.5429C41.2221 78.6939 40.5671 78.8312 39.8575 78.9822C39.0933 75.0557 39.8848 71.5548 42.0819 68.2872Z" fill="#22274E"/>
<path id="Vector_3" d="M79.9752 60.5995C80.4665 61.3546 80.9305 62.0548 81.4217 62.7824C80.8076 63.1943 80.2481 63.5787 79.6204 63.9906C79.1291 63.2492 78.6515 62.549 78.1738 61.8076C78.7743 61.4095 79.3338 61.0251 79.9752 60.5995Z" fill="#22274E"/>
<path id="Vector_4" d="M42.5596 80.5608C42.9417 81.261 43.2965 81.9062 43.6786 82.6202C43.1054 83.0183 42.5323 83.4164 41.8909 83.8695C41.4405 83.0458 41.0175 82.2632 40.5399 81.3983C41.2768 81.11 41.9045 80.8491 42.5596 80.5608Z" fill="#22274E"/>
<path id="Vector_5" d="M73.1939 84.3223H54.6755C53.3517 84.3223 52.2873 85.4069 52.2873 86.7249V90.0198C52.2873 91.3516 53.3654 92.4224 54.6755 92.4224H73.1939C74.5177 92.4224 75.5821 91.3378 75.5821 90.0198V86.7249C75.5821 85.4069 74.504 84.3223 73.1939 84.3223ZM73.9445 90.0198C73.9445 90.4317 73.6033 90.7749 73.1939 90.7749H54.6755C54.2661 90.7749 53.9249 90.4317 53.9249 90.0198V86.7249C53.9249 86.313 54.2661 85.9698 54.6755 85.9698H55.7399V87.6584H57.3775V85.9698H59.4245V87.6584H61.0621V85.9698H63.1091V87.6584H64.7467V85.9698H66.7937V87.6584H68.4313V85.9698H70.4783V87.6584H72.1158V85.9698H73.1803C73.5897 85.9698 73.9309 86.313 73.9309 86.7249V90.0198H73.9445Z" fill="#E9C503"/>
<path id="Vector_6" d="M77.3943 77.8685H58.8894C57.5657 77.8685 56.5013 78.9531 56.5013 80.2711V83.5661C56.5013 84.8978 57.5794 85.9687 58.8894 85.9687H77.4079C78.7317 85.9687 79.7961 84.8841 79.7961 83.5661V80.2711C79.7824 78.9531 78.718 77.8685 77.3943 77.8685ZM78.1449 83.5661C78.1449 83.978 77.8037 84.3212 77.3943 84.3212H58.8894C58.48 84.3212 58.1389 83.978 58.1389 83.5661V80.2711C58.1389 79.8592 58.48 79.516 58.8894 79.516H59.9539V81.2047H61.5915V79.516H63.6385V81.2047H65.2761V79.516H67.3231V81.2047H68.9607V79.516H71.0077V81.2047H72.6453V79.516H74.6923V81.2047H76.3298V79.516H77.3943C77.8037 79.516 78.1449 79.8592 78.1449 80.2711V83.5661V83.5661Z" fill="#E9C503"/>
<g id="Group 3256">
<path id="Vector_7" d="M63.6592 35.8855C63.3999 35.0068 63.1543 34.8146 62.3764 34.8283C61.8715 34.842 61.4757 35.0892 61.4484 35.556C61.4348 35.8992 61.6395 36.3934 61.8988 36.5719C62.4856 36.9838 63.1679 37.2721 63.8229 37.5741C65.0238 38.137 65.7198 39.0843 65.7471 40.4023C65.7744 41.7341 65.1194 42.6951 63.9458 43.3129C63.782 43.409 63.6046 43.6699 63.5909 43.8621C63.55 44.4799 63.5773 45.0977 63.5773 45.7567C62.854 45.7567 62.1717 45.7567 61.3938 45.7567C61.3938 45.1251 61.4075 44.4936 61.3802 43.8758C61.3665 43.6973 61.2847 43.4365 61.1618 43.3815C59.3878 42.5715 59.0739 41.0751 59.2377 39.2765C59.92 39.2765 60.6023 39.2765 61.3938 39.2765C61.3938 39.661 61.3802 40.0591 61.3938 40.471C61.4075 41.0339 61.7077 41.3634 62.2672 41.4183C62.8267 41.4869 63.3453 41.3771 63.5364 40.7593C63.7001 40.2239 63.4408 39.8394 62.9632 39.5923C62.2945 39.2491 61.6258 38.9196 60.9571 38.5764C59.8245 37.986 59.224 37.025 59.224 35.7619C59.224 34.5263 59.8108 33.5652 60.9298 33.0161C61.2983 32.8376 61.4211 32.6317 61.3938 32.2335C61.3665 31.6706 61.3802 31.094 61.3802 30.4762C62.1035 30.4762 62.7994 30.4762 63.5636 30.4762C63.5636 31.0254 63.5773 31.5608 63.5636 32.11C63.55 32.5493 63.6319 32.8239 64.0959 33.0573C65.2149 33.6064 65.7062 34.5949 65.7608 35.8855C65.0375 35.8855 64.3552 35.8855 63.6592 35.8855Z" fill="#E9C503"/>
<circle id="Ellipse 302" cx="62.4006" cy="37.6928" r="9.75422" stroke="#22274E" stroke-width="2"/>
</g>
<path id="Vector_8" d="M90.5787 69.3978C89.8009 67.5718 88.6409 65.8969 87.5901 64.1945C86.5257 62.4783 85.3657 60.8034 84.1921 59.0461C86.1845 58.7989 87.4264 57.6594 87.5628 56.0119C87.7402 53.9938 86.2118 52.4149 84.0829 52.4149C70.3954 52.4149 56.7078 52.4149 43.0202 52.4149C42.911 52.4149 42.7882 52.4149 42.679 52.4149C41.0824 52.4836 39.7314 53.7329 39.554 55.3255C39.3766 56.9318 40.3864 58.442 41.9421 58.8676C42.2424 58.95 42.5426 58.9912 42.8837 59.0598C42.7336 59.2932 42.6245 59.4854 42.5016 59.6776C42.3242 59.9385 42.1468 60.1993 41.9831 60.4739C41.6965 60.9132 41.4099 61.3388 41.1233 61.7782C40.2772 63.0412 39.4448 64.3043 38.6123 65.5811C38.5032 65.7459 38.394 65.9106 38.2848 66.0754C38.1074 66.3362 37.9437 66.6108 37.7799 66.8854C37.043 68.121 36.4562 69.3841 36.0331 70.6883C35.8421 71.265 35.692 71.8416 35.5555 72.4182C35.2826 73.6538 35.1461 74.9032 35.1597 76.1937C35.1597 76.633 35.187 77.0724 35.2143 77.5254C35.2826 78.2668 35.3917 79.0082 35.5419 79.7633C35.651 80.285 35.7738 80.793 35.924 81.3009C36.1969 82.2208 36.5244 83.0995 36.9202 83.9507C37.3296 84.8156 37.7935 85.6393 38.3258 86.4082C38.817 87.1221 39.3493 87.7948 39.9224 88.4263C41.0278 89.6208 42.2833 90.6642 43.6616 91.5154C44.0983 91.79 44.5486 92.0371 45.0126 92.2705C47.469 93.5061 50.2529 94.1788 53.2142 94.1788C60.0785 94.1788 66.9428 94.1926 73.8207 94.1651C74.9124 94.1651 76.0041 94.069 77.0822 93.9043C88.2452 92.1195 95.0412 79.8319 90.5787 69.3978ZM42.6927 56.7808C42.1332 56.7121 41.7511 56.2591 41.7511 55.7099C41.7511 55.1607 42.1468 54.7077 42.6927 54.6253C42.8974 54.5978 43.1021 54.6116 43.3068 54.6116C56.8443 54.6116 70.3681 54.6116 83.9055 54.6116C84.0829 54.6116 84.274 54.5978 84.4514 54.6253C85.0109 54.6939 85.393 55.147 85.393 55.6962C85.393 56.2453 84.9973 56.7121 84.4514 56.7808C84.2331 56.8082 84.0011 56.7945 83.7691 56.7945H43.3068C43.1021 56.7945 42.8974 56.8082 42.6927 56.7808ZM78.6925 91.2408C76.9321 91.7762 75.1307 91.9273 73.3157 91.941C70.2453 91.9685 67.1748 91.941 64.1043 91.941V91.9547H53.3234C50.5122 91.9547 47.8784 91.282 45.5994 90.0464C45.1491 89.813 44.726 89.5521 44.303 89.2638C43.7981 88.9343 43.3204 88.5636 42.8701 88.1792C42.2287 87.6301 41.6283 87.026 41.0824 86.3807C40.441 85.6256 39.8815 84.8019 39.3902 83.9232C38.9262 83.0995 38.5305 82.2071 38.2166 81.2735C37.9437 80.4497 37.7253 79.5848 37.5616 78.6924C37.4933 78.2943 37.4387 77.8961 37.4114 77.5117C37.3705 77.0586 37.3432 76.6193 37.3432 76.18C37.3296 74.8895 37.4797 73.6264 37.7935 72.4045C37.9437 71.8141 38.1211 71.2375 38.3394 70.6746C38.6533 69.8371 39.049 69.0134 39.5267 68.2171C39.6631 67.9837 39.7996 67.7503 39.9497 67.5307C39.9634 67.5032 39.977 67.4757 39.9907 67.462C40.1135 67.2698 40.2363 67.0776 40.3728 66.8854C40.6593 66.4461 40.9459 66.0205 41.2325 65.5811C41.7784 64.7574 42.3242 63.9336 42.8701 63.1236C42.8701 63.1236 42.8701 63.1236 42.8701 63.1099C43.1703 62.6706 43.4569 62.2175 43.7571 61.7782C44.0028 61.4075 44.2621 61.0231 44.5077 60.6524C44.7806 60.2405 45.0536 59.8286 45.3265 59.4305C45.4766 59.2245 45.8178 59.0323 46.0771 59.0323C57.7449 59.0186 69.3992 59.0186 81.067 59.0323C81.3127 59.0323 81.6402 59.1971 81.7767 59.3893C83.7008 62.2724 85.6796 65.1143 87.4946 68.0661C92.8304 76.688 88.368 88.3302 78.6925 91.2408Z" fill="#22274E"/>
</g>
</g>
<defs>
<filter id="filter0_di_305_1173" x="0" y="-9" width="128" height="137" filterUnits="userSpaceOnUse" color-interpolation-filters="sRGB">
<feFlood flood-opacity="0" result="BackgroundImageFix"/>
<feColorMatrix in="SourceAlpha" type="matrix" values="0 0 0 0 0 0 0 0 0 0 0 0 0 0 0 0 0 0 127 0" result="hardAlpha"/>
<feOffset dy="4"/>
<feGaussianBlur stdDeviation="2"/>
<feColorMatrix type="matrix" values="0 0 0 0 0 0 0 0 0 0 0 0 0 0 0 0 0 0 0.25 0"/>
<feBlend mode="normal" in2="BackgroundImageFix" result="effect1_dropShadow_305_1173"/>
<feBlend mode="normal" in="SourceGraphic" in2="effect1_dropShadow_305_1173" result="shape"/>
<feColorMatrix in="SourceAlpha" type="matrix" values="0 0 0 0 0 0 0 0 0 0 0 0 0 0 0 0 0 0 127 0" result="hardAlpha"/>
<feOffset dy="-9"/>
<feGaussianBlur stdDeviation="5.5"/>
<feComposite in2="hardAlpha" operator="arithmetic" k2="-1" k3="1"/>
<feColorMatrix type="matrix" values="0 0 0 0 0.145098 0 0 0 0 0.741176 0 0 0 0 0.745098 0 0 0 0.21 0"/>
<feBlend mode="normal" in2="shape" result="effect2_innerShadow_305_1173"/>
</filter>
</defs>
</svg>
