<svg width="128" height="128" viewBox="0 0 128 128" fill="none" xmlns="http://www.w3.org/2000/svg">
<g id="Group 3445">
<g id="Ellipse 305" filter="url(#filter0_di_305_1229)">
<circle cx="64" cy="60" r="60" fill="white"/>
<circle cx="64" cy="60" r="58" stroke="#25BDBE" stroke-width="4"/>
</g>
<g id="Group 3262">
<path id="Vector" d="M87.3965 63.751C88.0379 63.3253 88.5974 62.9409 89.1842 62.5565C91.6406 66.0437 94.1516 69.4623 93.8786 74.0752C93.1963 74.0752 92.514 74.0752 91.7088 74.0752C92.0227 69.929 89.5254 66.9636 87.3965 63.751Z" fill="#22274E"/>
<path id="Vector_2" d="M48.412 65.8389C49.0261 66.2507 49.5856 66.6352 50.2134 67.047C48.3301 69.8066 47.6888 72.7995 48.2892 76.0945C47.5523 76.2455 46.8972 76.3828 46.1876 76.5338C45.4234 72.6073 46.2149 69.1064 48.412 65.8389Z" fill="#22274E"/>
<path id="Vector_3" d="M86.3059 58.151C86.7972 58.9061 87.2611 59.6063 87.7524 60.3339C87.1383 60.7458 86.5788 61.1302 85.9511 61.5421C85.4598 60.8007 84.9821 60.1005 84.5045 59.3592C85.105 58.961 85.6645 58.5766 86.3059 58.151Z" fill="#22274E"/>
<path id="Vector_4" d="M48.8903 78.1122C49.2724 78.8124 49.6272 79.4576 50.0093 80.1715C49.4362 80.5697 48.863 80.9678 48.2216 81.4209C47.7713 80.5972 47.3482 79.8146 46.8706 78.9497C47.6075 78.6613 48.2353 78.4005 48.8903 78.1122Z" fill="#22274E"/>
<path id="Vector_5" d="M79.5253 81.8737H61.0068C59.6831 81.8737 58.6187 82.9583 58.6187 84.2762V87.5712C58.6187 88.9029 59.6967 89.9738 61.0068 89.9738H79.5253C80.849 89.9738 81.9135 88.8892 81.9135 87.5712V84.2762C81.9135 82.9583 80.8354 81.8737 79.5253 81.8737ZM80.2759 87.5712C80.2759 87.9831 79.9347 88.3263 79.5253 88.3263H61.0068C60.5974 88.3263 60.2563 87.9831 60.2563 87.5712V84.2762C60.2563 83.8644 60.5974 83.5211 61.0068 83.5211H62.0713V85.2098H63.7088V83.5211H65.7558V85.2098H67.3934V83.5211H69.4404V85.2098H71.078V83.5211H73.125V85.2098H74.7626V83.5211H76.8096V85.2098H78.4472V83.5211H79.5116C79.921 83.5211 80.2622 83.8644 80.2622 84.2762V87.5712H80.2759Z" fill="#E9C503"/>
<path id="Vector_6" d="M83.722 75.42H65.2171C63.8934 75.42 62.829 76.5046 62.829 77.8226V81.1176C62.829 82.4493 63.9071 83.5202 65.2171 83.5202H83.7356C85.0594 83.5202 86.1238 82.4356 86.1238 81.1176V77.8226C86.1101 76.5046 85.0457 75.42 83.722 75.42ZM84.4726 81.1176C84.4726 81.5295 84.1314 81.8727 83.722 81.8727H65.2171C64.8077 81.8727 64.4666 81.5295 64.4666 81.1176V77.8226C64.4666 77.4108 64.8077 77.0675 65.2171 77.0675H66.2816V78.7562H67.9192V77.0675H69.9662V78.7562H71.6038V77.0675H73.6508V78.7562H75.2884V77.0675H77.3354V78.7562H78.973V77.0675H81.02V78.7562H82.6575V77.0675H83.722C84.1314 77.0675 84.4726 77.4108 84.4726 77.8226V81.1176V81.1176Z" fill="#E9C503"/>
<path id="Vector_7" d="M78.6495 68.9825H60.1446C58.8209 68.9825 57.7565 70.0671 57.7565 71.3851V74.6801C57.7565 76.0118 58.8346 77.0827 60.1446 77.0827H78.6631C79.9869 77.0827 81.0513 75.9981 81.0513 74.6801V71.3851C81.0376 70.0671 79.9732 68.9825 78.6495 68.9825ZM79.4 74.6801C79.4 75.092 79.0589 75.4352 78.6495 75.4352H60.1446C59.7352 75.4352 59.3941 75.092 59.3941 74.6801V71.3851C59.3941 70.9733 59.7352 70.63 60.1446 70.63H61.2091V72.3187H62.8467V70.63H64.8937V72.3187H66.5313V70.63H68.5783V72.3187H70.2159V70.63H72.2629V72.3187H73.9004V70.63H75.9474V72.3187H77.585V70.63H78.6495C79.0589 70.63 79.4 70.9733 79.4 71.3851V74.6801Z" fill="#E9C503"/>
<path id="Vector_8" d="M81.4243 62.5565H62.9194C61.5957 62.5565 60.5312 63.6411 60.5312 64.9591V68.2541C60.5312 69.5858 61.6093 70.6567 62.9194 70.6567H81.4379C82.7616 70.6567 83.8261 69.5721 83.8261 68.2541V64.9591C83.8261 63.6411 82.748 62.5565 81.4243 62.5565ZM82.1885 68.2541C82.1885 68.666 81.8473 69.0092 81.4379 69.0092H62.9194C62.51 69.0092 62.1688 68.666 62.1688 68.2541V64.9591C62.1688 64.5472 62.51 64.204 62.9194 64.204H63.9838V65.8927H65.6214V64.204H67.6684V65.8927H69.306V64.204H71.353V65.8927H72.9906V64.204H75.0376V65.8927H76.6752V64.204H78.7222V65.8927H80.3598V64.204H81.4243C81.8337 64.204 82.1748 64.5472 82.1748 64.9591V68.2541H82.1885Z" fill="#E9C503"/>
<path id="Vector_9" d="M33.2751 89.2456H26.3972C26.1243 89.2456 25.9059 89.0259 25.9059 88.7513V86.5684C25.9059 86.2938 26.1243 86.0742 26.3972 86.0742H27.1068V87.1999H28.1849V86.0742H29.5359V87.1999H30.614V86.0742H31.965V87.1999H33.0431V86.0742H33.0841V85.8408C33.0841 85.5387 33.1523 85.2504 33.2888 84.9896H26.3972C26.1243 84.9896 25.9059 84.7699 25.9059 84.4953V82.3124C25.9059 82.0515 26.097 81.8456 26.3563 81.8181C26.3699 81.8181 26.3972 81.8181 26.4109 81.8181H27.1205V82.9302H28.1986V81.8181H29.5496V82.9302H30.6277V81.8181H31.9787V82.9302H33.0568V81.8181H33.0977V80.7198H26.3972C26.3836 80.7198 26.3563 80.7198 26.3426 80.7198C26.097 80.6923 25.8923 80.4864 25.8923 80.2256V78.0426C25.8923 77.8092 26.0561 77.6033 26.2744 77.5621C26.3153 77.5621 26.3563 77.5621 26.3836 77.5621H27.0932V78.6604H28.1713V77.5621H29.5223V78.6604H30.6004V77.5621H31.9514V78.6604H33.0295V77.5621H33.0704V76.4501H26.3972C26.3563 76.4501 26.3153 76.4501 26.288 76.4501C26.0697 76.3951 25.9059 76.2029 25.9059 75.9695V73.7866C25.9059 73.512 26.1243 73.2924 26.3972 73.2924H27.1068V74.4181H28.1849V73.2924H29.5359V74.4181H30.614V73.2924H31.965V74.4181H33.0431V73.2924H33.0841C33.0841 73.2512 33.0841 73.1963 33.0841 73.1551V72.2078H26.3972C25.5238 72.2078 24.8142 72.9217 24.8142 73.8003V75.9833C24.8142 76.3814 24.9643 76.7384 25.1963 77.0129C24.9643 77.2875 24.8142 77.6582 24.8142 78.0426V80.2256C24.8142 80.6237 24.9643 80.9944 25.21 81.269C24.9643 81.5435 24.8142 81.9142 24.8142 82.3124V84.4953C24.8142 84.8934 24.9643 85.2641 25.21 85.5387C24.9643 85.8133 24.8142 86.184 24.8142 86.5821V88.7651C24.8142 89.6437 25.5238 90.3576 26.3972 90.3576H34.981C34.2304 90.3439 33.5753 89.8908 33.2751 89.2456Z" fill="#E9C503"/>
<path id="Vector_10" d="M50.2256 86.8303V88.4504C50.2256 88.7798 49.9663 89.0544 49.6252 89.0544H34.9823C34.6548 89.0544 34.3819 88.7798 34.3819 88.4504V85.8418C34.3819 85.5123 34.6548 85.2515 34.9823 85.2515H35.8284V86.5969H37.1248V85.2377H38.7488V86.5832H40.0452V85.2377H41.6692V86.5832H42.9656V85.2377H44.5895V86.5832H45.886V85.2377H47.5099V86.5832H48.8064V85.7457C48.165 85.1966 47.5645 84.5925 47.0186 83.9472H35.0096C34.6821 83.9472 34.4091 83.6864 34.4091 83.3569V80.7346C34.4091 80.4326 34.6411 80.1854 34.9414 80.158C34.955 80.158 34.9823 80.158 35.0096 80.158H35.8557V81.4897H37.1521V80.158H38.7761V81.4897H40.0725V80.158H41.6965V81.4897H42.9929V80.158H44.6168V81.4897H45.3538C44.8898 80.666 44.494 79.7736 44.1801 78.84H34.9823C34.9687 78.84 34.9414 78.84 34.9141 78.84C34.7776 78.8263 34.6548 78.7713 34.5593 78.6752H34.3955V78.4007C34.3819 78.3595 34.3819 78.3045 34.3819 78.2496V75.6411C34.3819 75.3665 34.5729 75.1194 34.8322 75.0645C34.8731 75.0645 34.9277 75.0645 34.9687 75.0645H35.8148V76.3825H37.1112V75.0645H38.7351V76.3825H40.0316V75.0645H41.6555V76.3825H42.9519V75.0645H43.3341C43.2931 74.6114 43.2658 74.1721 43.2658 73.7328H34.9823C34.9414 73.7328 34.8868 73.7328 34.8458 73.7328C34.6411 73.6778 34.4637 73.5131 34.4091 73.3072V73.2934C34.3955 73.2522 34.3955 73.1973 34.3955 73.1561V70.5476C34.3955 70.2181 34.6684 69.9435 34.996 69.9435H35.842V71.289H37.1385V69.9435H38.7624V71.289H40.0589V69.9435H41.6828V71.289H42.9792V69.9435H43.7298C43.8799 69.3532 44.0573 68.7766 44.2757 68.2137H34.996C34.6684 68.2137 34.3955 67.9391 34.3955 67.6233V65.0148C34.3955 64.6853 34.6684 64.4107 34.996 64.4107H35.842V65.7562H37.1385V64.4107H38.7624V65.7562H40.0589V64.4107H41.6828V65.7562H42.9792V64.4107H44.6032V65.7562H45.8996V64.4107H46.3227C46.6092 63.9714 46.8958 63.5458 47.1824 63.1064H34.9823C34.6548 63.1064 34.3819 62.8319 34.3819 62.5161V59.9076C34.3819 59.5781 34.6548 59.3172 34.9823 59.3172H35.8284V60.6627H37.1248V59.3172H38.7488V60.6627H40.0452V59.3172H41.6692V60.6627H42.9656V59.3172H44.5895V60.6627H45.886V59.3172H47.5099V60.6627H48.8064V59.3172H49.6524C49.6661 59.3172 49.6797 59.3172 49.6934 59.3172C49.939 58.9465 50.1983 58.5621 50.444 58.1914C50.1983 58.0816 49.9254 58.0129 49.6388 58.0129H34.9823C33.9452 58.0129 33.0991 58.8641 33.0991 59.9076V62.5161C33.0991 62.9966 33.2765 63.4359 33.5631 63.7654C33.2765 64.0949 33.0991 64.5343 33.0991 65.0148V67.6233C33.0991 68.2137 33.3584 68.7354 33.7814 69.0786C33.3584 69.4218 33.0991 69.9573 33.0991 70.5476V73.1561C33.0991 73.1973 33.0991 73.2522 33.0991 73.2934C33.1264 73.7053 33.2901 74.0897 33.5494 74.3918C33.2628 74.7213 33.0854 75.1606 33.0854 75.6274V78.2359C33.0854 78.7164 33.2628 79.142 33.5494 79.4853C33.2628 79.8147 33.0854 80.2404 33.0854 80.7209V83.3431C33.0854 83.8236 33.2628 84.263 33.5494 84.5925C33.4402 84.716 33.3584 84.8533 33.2765 84.9906C33.1537 85.2515 33.0718 85.5398 33.0718 85.8418V88.4504C33.0718 88.7387 33.14 89.0132 33.2492 89.2604C33.5494 89.9056 34.2044 90.345 34.955 90.345H49.5979C50.1164 90.345 50.5804 90.139 50.9352 89.7958C51.2764 89.4526 51.4947 88.9721 51.4947 88.4504V87.6129C51.0717 87.3658 50.635 87.1049 50.2256 86.8303Z" fill="#E9C503"/>
<g id="Group 3256">
<path id="Vector_11" d="M69.9887 33.4372C69.7294 32.5586 69.4838 32.3663 68.7059 32.3801C68.201 32.3938 67.8052 32.6409 67.7779 33.1077C67.7643 33.4509 67.969 33.9452 68.2283 34.1237C68.8151 34.5355 69.4974 34.8239 70.1525 35.1259C71.3534 35.6888 72.0493 36.6361 72.0766 37.9541C72.1039 39.2858 71.4489 40.2469 70.2753 40.8647C70.1115 40.9608 69.9341 41.2216 69.9205 41.4138C69.8795 42.0316 69.9068 42.6494 69.9068 43.3084C69.1836 43.3084 68.5012 43.3084 67.7234 43.3084C67.7234 42.6769 67.737 42.0454 67.7097 41.4276C67.6961 41.2491 67.6142 40.9882 67.4914 40.9333C65.7173 40.1233 65.4034 38.6268 65.5672 36.8283C66.2495 36.8283 66.9319 36.8283 67.7234 36.8283C67.7234 37.2127 67.7097 37.6109 67.7234 38.0227C67.737 38.5856 68.0372 38.9151 68.5967 38.97C69.1563 39.0387 69.6748 38.9289 69.8659 38.311C70.0296 37.7756 69.7704 37.3912 69.2927 37.1441C68.624 36.8008 67.9554 36.4713 67.2867 36.1281C66.154 35.5378 65.5535 34.5767 65.5535 33.3137C65.5535 32.078 66.1403 31.117 67.2594 30.5678C67.6278 30.3894 67.7507 30.1834 67.7234 29.7853C67.6961 29.2224 67.7097 28.6458 67.7097 28.028C68.433 28.028 69.129 28.028 69.8932 28.028C69.8932 28.5771 69.9068 29.1126 69.8932 29.6617C69.8795 30.101 69.9614 30.3756 70.4254 30.609C71.5444 31.1582 72.0357 32.1467 72.0903 33.4372C71.367 33.4372 70.6847 33.4372 69.9887 33.4372Z" fill="#E9C503"/>
<circle id="Ellipse 302" cx="68.7283" cy="35.2442" r="9.75422" stroke="#22274E" stroke-width="2"/>
</g>
<path id="Vector_12" d="M96.9082 66.9491C96.1304 65.1231 94.9704 63.4482 93.9196 61.7458C92.8552 60.0296 91.6952 58.3547 90.5216 56.5973C92.514 56.3502 93.7558 55.2107 93.8923 53.5632C94.0697 51.545 92.5413 49.9662 90.4124 49.9662C76.7248 49.9662 63.0373 49.9662 49.3497 49.9662C49.2405 49.9662 49.1177 49.9662 49.0085 49.9662C47.4119 50.0348 46.0608 51.2842 45.8834 52.8768C45.706 54.4831 46.7159 55.9933 48.2716 56.4189C48.5718 56.5012 48.872 56.5424 49.2132 56.6111C49.0631 56.8445 48.9539 57.0367 48.8311 57.2289C48.6537 57.4897 48.4763 57.7506 48.3125 58.0252C48.026 58.4645 47.7394 58.8901 47.4528 59.3294C46.6067 60.5925 45.7743 61.8556 44.9418 63.1324C44.8326 63.2971 44.7235 63.4619 44.6143 63.6266C44.4369 63.8875 44.2731 64.1621 44.1094 64.4367C43.3724 65.6723 42.7856 66.9354 42.3626 68.2396C42.1715 68.8162 42.0214 69.3929 41.885 69.9695C41.612 71.2051 41.4756 72.4544 41.4892 73.745C41.4892 74.1843 41.5165 74.6236 41.5438 75.0767C41.612 75.8181 41.7212 76.5594 41.8713 77.3145C41.9805 77.8363 42.1033 78.3442 42.2534 78.8522C42.5264 79.7721 42.8539 80.6507 43.2496 81.5019C43.659 82.3669 44.123 83.1906 44.6552 83.9594C45.1465 84.6733 45.6787 85.3461 46.2519 85.9776C47.3573 87.172 48.6128 88.2155 49.9911 89.0667C50.4278 89.3412 50.8781 89.5884 51.3421 89.8218C53.7985 91.0574 56.5824 91.7301 59.5437 91.7301C66.408 91.7301 73.2722 91.7438 80.1501 91.7164C81.2419 91.7164 82.3336 91.6203 83.4117 91.4555C94.5746 89.6707 101.371 77.3832 96.9082 66.9491ZM49.0222 54.332C48.4626 54.2634 48.0805 53.8103 48.0805 53.2612C48.0805 52.712 48.4763 52.2589 49.0222 52.1766C49.2269 52.1491 49.4316 52.1628 49.6363 52.1628C63.1737 52.1628 76.6975 52.1628 90.235 52.1628C90.4124 52.1628 90.6035 52.1491 90.7809 52.1766C91.3404 52.2452 91.7225 52.6983 91.7225 53.2474C91.7225 53.7966 91.3267 54.2634 90.7809 54.332C90.5625 54.3595 90.3305 54.3458 90.0985 54.3458H49.6363C49.4316 54.3458 49.2269 54.3595 49.0222 54.332ZM85.022 88.7921C83.2616 89.3275 81.4602 89.4785 79.6452 89.4923C76.5747 89.5197 73.5042 89.4923 70.4337 89.4923V89.506H59.6529C56.8417 89.506 54.2079 88.8333 51.9289 87.5976C51.4786 87.3643 51.0555 87.1034 50.6325 86.8151C50.1275 86.4856 49.6499 86.1149 49.1996 85.7305C48.5582 85.1813 47.9577 84.5772 47.4119 83.932C46.7705 83.1769 46.2109 82.3531 45.7197 81.4745C45.2557 80.6507 44.8599 79.7583 44.5461 78.8247C44.2731 78.001 44.0548 77.1361 43.891 76.2437C43.8228 75.8455 43.7682 75.4474 43.7409 75.063C43.7 74.6099 43.6727 74.1706 43.6727 73.7313C43.659 72.4407 43.8091 71.1776 44.123 69.9558C44.2731 69.3654 44.4505 68.7888 44.6689 68.2259C44.9828 67.3884 45.3785 66.5647 45.8561 65.7684C45.9926 65.535 46.1291 65.3016 46.2792 65.0819C46.2928 65.0545 46.3065 65.027 46.3201 65.0133C46.4429 64.8211 46.5658 64.6289 46.7022 64.4367C46.9888 63.9973 47.2754 63.5717 47.562 63.1324C48.1078 62.3086 48.6537 61.4849 49.1996 60.6749C49.1996 60.6749 49.1996 60.6749 49.1996 60.6612C49.4998 60.2218 49.7864 59.7688 50.0866 59.3294C50.3322 58.9587 50.5915 58.5743 50.8372 58.2036C51.1101 57.7918 51.383 57.3799 51.656 56.9818C51.8061 56.7758 52.1472 56.5836 52.4065 56.5836C64.0744 56.5699 75.7286 56.5699 87.3965 56.5836C87.6421 56.5836 87.9697 56.7484 88.1061 56.9406C90.0303 59.8237 92.0091 62.6656 93.8241 65.6174C99.1599 74.2392 94.6975 85.8815 85.022 88.7921Z" fill="#22274E"/>
</g>
</g>
<defs>
<filter id="filter0_di_305_1229" x="0" y="-9" width="128" height="137" filterUnits="userSpaceOnUse" color-interpolation-filters="sRGB">
<feFlood flood-opacity="0" result="BackgroundImageFix"/>
<feColorMatrix in="SourceAlpha" type="matrix" values="0 0 0 0 0 0 0 0 0 0 0 0 0 0 0 0 0 0 127 0" result="hardAlpha"/>
<feOffset dy="4"/>
<feGaussianBlur stdDeviation="2"/>
<feColorMatrix type="matrix" values="0 0 0 0 0 0 0 0 0 0 0 0 0 0 0 0 0 0 0.25 0"/>
<feBlend mode="normal" in2="BackgroundImageFix" result="effect1_dropShadow_305_1229"/>
<feBlend mode="normal" in="SourceGraphic" in2="effect1_dropShadow_305_1229" result="shape"/>
<feColorMatrix in="SourceAlpha" type="matrix" values="0 0 0 0 0 0 0 0 0 0 0 0 0 0 0 0 0 0 127 0" result="hardAlpha"/>
<feOffset dy="-9"/>
<feGaussianBlur stdDeviation="5.5"/>
<feComposite in2="hardAlpha" operator="arithmetic" k2="-1" k3="1"/>
<feColorMatrix type="matrix" values="0 0 0 0 0.145098 0 0 0 0 0.741176 0 0 0 0 0.745098 0 0 0 0.21 0"/>
<feBlend mode="normal" in2="shape" result="effect2_innerShadow_305_1229"/>
</filter>
</defs>
</svg>
