<svg width="128" height="128" viewBox="0 0 128 128" fill="none" xmlns="http://www.w3.org/2000/svg">
<g id="Group 3444">
<g id="Ellipse 304" filter="url(#filter0_di_305_1199)">
<circle cx="64" cy="60" r="60" fill="white"/>
<circle cx="64" cy="60" r="58" stroke="#25BDBE" stroke-width="4"/>
</g>
<g id="Group 3263">
<path id="Vector" d="M82.2894 66.2003C82.9308 65.7747 83.4903 65.3903 84.0771 65.0059C86.5335 68.493 89.0445 71.9116 88.7716 76.5246C88.0892 76.5246 87.4069 76.5246 86.6018 76.5246C86.9156 72.3784 84.4183 69.4129 82.2894 66.2003Z" fill="#22274E"/>
<path id="Vector_2" d="M43.3069 68.2882C43.921 68.7001 44.4805 69.0845 45.1083 69.4964C43.225 72.2559 42.5836 75.2489 43.1841 78.5438C42.4472 78.6949 41.7921 78.8322 41.0825 78.9832C40.3183 75.0567 41.1098 71.5557 43.3069 68.2882Z" fill="#22274E"/>
<path id="Vector_3" d="M81.1966 60.6001C81.6879 61.3552 82.1519 62.0554 82.6432 62.783C82.0291 63.1949 81.4696 63.5793 80.8418 63.9912C80.3505 63.2498 79.8729 62.5496 79.3953 61.8083C79.9957 61.4101 80.5552 61.0257 81.1966 60.6001Z" fill="#22274E"/>
<path id="Vector_4" d="M43.7817 80.5618C44.1638 81.262 44.5186 81.9072 44.9007 82.6211C44.3275 83.0193 43.7544 83.4174 43.113 83.8705C42.6626 83.0467 42.2396 82.2642 41.762 81.3992C42.4989 81.1109 43.1266 80.8501 43.7817 80.5618Z" fill="#22274E"/>
<path id="Vector_5" d="M74.4175 84.323H55.899C54.5753 84.323 53.5109 85.4076 53.5109 86.7256V90.0206C53.5109 91.3523 54.589 92.4232 55.899 92.4232H74.4175C75.7412 92.4232 76.8057 91.3386 76.8057 90.0206V86.7256C76.8057 85.4076 75.7276 84.323 74.4175 84.323ZM75.1681 90.0206C75.1681 90.4324 74.8269 90.7757 74.4175 90.7757H55.899C55.4896 90.7757 55.1485 90.4324 55.1485 90.0206V86.7256C55.1485 86.3137 55.4896 85.9705 55.899 85.9705H56.9635V87.6592H58.6011V85.9705H60.6481V87.6592H62.2856V85.9705H64.3326V87.6592H65.9702V85.9705H68.0172V87.6592H69.6548V85.9705H71.7018V87.6592H73.3394V85.9705H74.4039C74.8133 85.9705 75.1544 86.3137 75.1544 86.7256V90.0206H75.1681Z" fill="#E9C503"/>
<path id="Vector_6" d="M78.6182 77.8691H60.1134C58.7897 77.8691 57.7252 78.9537 57.7252 80.2717V83.5667C57.7252 84.8984 58.8033 85.9693 60.1134 85.9693H78.6319C79.9556 85.9693 81.02 84.8847 81.02 83.5667V80.2717C81.0064 78.9537 79.942 77.8691 78.6182 77.8691ZM79.3688 83.5667C79.3688 83.9786 79.0276 84.3218 78.6182 84.3218H60.1134C59.704 84.3218 59.3628 83.9786 59.3628 83.5667V80.2717C59.3628 79.8599 59.704 79.5166 60.1134 79.5166H61.1778V81.2053H62.8154V79.5166H64.8624V81.2053H66.5V79.5166H68.547V81.2053H70.1846V79.5166H72.2316V81.2053H73.8692V79.5166H75.9162V81.2053H77.5538V79.5166H78.6182C79.0276 79.5166 79.3688 79.8599 79.3688 80.2717V83.5667V83.5667Z" fill="#E9C503"/>
<path id="Vector_7" d="M73.5438 71.4319H55.0389C53.7152 71.4319 52.6508 72.5165 52.6508 73.8345V77.1295C52.6508 78.4612 53.7288 79.5321 55.0389 79.5321H73.5574C74.8811 79.5321 75.9456 78.4475 75.9456 77.1295V73.8345C75.9319 72.5165 74.8675 71.4319 73.5438 71.4319ZM74.2943 77.1295C74.2943 77.5413 73.9532 77.8846 73.5438 77.8846H55.0389C54.6295 77.8846 54.2884 77.5413 54.2884 77.1295V73.8345C54.2884 73.4226 54.6295 73.0794 55.0389 73.0794H56.1034V74.7681H57.741V73.0794H59.788V74.7681H61.4255V73.0794H63.4725V74.7681H65.1101V73.0794H67.1571V74.7681H68.7947V73.0794H70.8417V74.7681H72.4793V73.0794H73.5438C73.9532 73.0794 74.2943 73.4226 74.2943 73.8345V77.1295Z" fill="#E9C503"/>
<path id="Vector_8" d="M76.3176 65.0059H57.8127C56.489 65.0059 55.4246 66.0905 55.4246 67.4085V70.7034C55.4246 72.0352 56.5026 73.106 57.8127 73.106H76.3312C77.6549 73.106 78.7194 72.0214 78.7194 70.7034V67.4085C78.7194 66.0905 77.6413 65.0059 76.3176 65.0059ZM77.0818 70.7034C77.0818 71.1153 76.7406 71.4585 76.3312 71.4585H57.8127C57.4033 71.4585 57.0622 71.1153 57.0622 70.7034V67.4085C57.0622 66.9966 57.4033 66.6534 57.8127 66.6534H58.8772V68.342H60.5148V66.6534H62.5618V68.342H64.1993V66.6534H66.2463V68.342H67.8839V66.6534H69.9309V68.342H71.5685V66.6534H73.6155V68.342H75.2531V66.6534H76.3176C76.727 66.6534 77.0681 66.9966 77.0681 67.4085V70.7034H77.0818Z" fill="#E9C503"/>
<g id="Group 3256">
<path id="Vector_9" d="M64.8806 35.8864C64.6213 35.0078 64.3756 34.8156 63.5978 34.8293C63.0928 34.843 62.6971 35.0901 62.6698 35.5569C62.6561 35.9002 62.8608 36.3944 63.1201 36.5729C63.7069 36.9848 64.3893 37.2731 65.0443 37.5751C66.2452 38.138 66.9412 39.0853 66.9685 40.4033C66.9958 41.735 66.3407 42.6961 65.1671 43.3139C65.0034 43.41 64.826 43.6708 64.8123 43.863C64.7714 44.4809 64.7987 45.0987 64.7987 45.7577C64.0754 45.7577 63.3931 45.7577 62.6152 45.7577C62.6152 45.1261 62.6289 44.4946 62.6016 43.8768C62.5879 43.6983 62.506 43.4374 62.3832 43.3825C60.6092 42.5725 60.2953 41.076 60.459 39.2775C61.1414 39.2775 61.8237 39.2775 62.6152 39.2775C62.6152 39.6619 62.6016 40.0601 62.6152 40.472C62.6289 41.0348 62.9291 41.3643 63.4886 41.4193C64.0481 41.4879 64.5667 41.3781 64.7577 40.7603C64.9215 40.2248 64.6622 39.8404 64.1846 39.5933C63.5159 39.2501 62.8472 38.9206 62.1785 38.5773C61.0458 37.987 60.4454 37.026 60.4454 35.7629C60.4454 34.5273 61.0322 33.5662 62.1512 33.0171C62.5197 32.8386 62.6425 32.6326 62.6152 32.2345C62.5879 31.6716 62.6016 31.095 62.6016 30.4772C63.3248 30.4772 64.0208 30.4772 64.785 30.4772C64.785 31.0263 64.7987 31.5618 64.785 32.1109C64.7714 32.5503 64.8533 32.8248 65.3172 33.0582C66.4363 33.6074 66.9275 34.5959 66.9821 35.8864C66.2589 35.8864 65.5765 35.8864 64.8806 35.8864Z" fill="#E9C503"/>
<circle id="Ellipse 302" cx="63.6242" cy="37.6936" r="9.75422" stroke="#22274E" stroke-width="2"/>
</g>
<path id="Vector_10" d="M91.802 69.3987C91.0241 67.5727 89.8642 65.8977 88.8134 64.1953C87.749 62.4792 86.589 60.8042 85.4154 59.0469C87.4078 58.7998 88.6496 57.6603 88.7861 56.0128C88.9635 53.9946 87.4351 52.4158 85.3062 52.4158C71.6186 52.4158 57.9311 52.4158 44.2435 52.4158C44.1343 52.4158 44.0115 52.4158 43.9023 52.4158C42.3057 52.4844 40.9546 53.7338 40.7772 55.3263C40.5998 56.9326 41.6097 58.4428 43.1654 58.8684C43.4656 58.9508 43.7658 58.992 44.107 59.0607C43.9569 59.294 43.8477 59.4863 43.7249 59.6785C43.5475 59.9393 43.3701 60.2002 43.2063 60.4748C42.9198 60.9141 42.6332 61.3397 42.3466 61.779C41.5005 63.0421 40.6681 64.3052 39.8356 65.582C39.7264 65.7467 39.6173 65.9115 39.5081 66.0762C39.3307 66.3371 39.1669 66.6117 39.0032 66.8862C38.2662 68.1219 37.6794 69.3849 37.2564 70.6892C37.0653 71.2658 36.9152 71.8424 36.7788 72.4191C36.5058 73.6547 36.3694 74.904 36.383 76.1946C36.383 76.6339 36.4103 77.0732 36.4376 77.5263C36.5058 78.2677 36.615 79.009 36.7651 79.7641C36.8743 80.2858 36.9971 80.7938 37.1472 81.3018C37.4202 82.2216 37.7477 83.1003 38.1434 83.9515C38.5528 84.8164 39.0168 85.6402 39.549 86.409C40.0403 87.1229 40.5725 87.7957 41.1457 88.4272C42.2511 89.6216 43.5066 90.665 44.8849 91.5162C45.3216 91.7908 45.7719 92.038 46.2359 92.2713C48.6923 93.507 51.4762 94.1797 54.4375 94.1797C61.3018 94.1797 68.166 94.1934 75.0439 94.166C76.1357 94.166 77.2274 94.0699 78.3055 93.9051C89.4684 92.1203 96.2645 79.8328 91.802 69.3987ZM43.916 56.7816C43.3564 56.713 42.9743 56.2599 42.9743 55.7108C42.9743 55.1616 43.3701 54.7085 43.916 54.6262C44.1207 54.5987 44.3254 54.6124 44.5301 54.6124C58.0675 54.6124 71.5913 54.6124 85.1288 54.6124C85.3062 54.6124 85.4973 54.5987 85.6747 54.6262C86.2342 54.6948 86.6163 55.1479 86.6163 55.697C86.6163 56.2462 86.2205 56.713 85.6747 56.7816C85.4563 56.8091 85.2243 56.7954 84.9923 56.7954H44.5301C44.3254 56.7954 44.1207 56.8091 43.916 56.7816ZM79.9158 91.2417C78.1554 91.7771 76.354 91.9281 74.539 91.9418C71.4685 91.9693 68.398 91.9418 65.3275 91.9418V91.9556H54.5467C51.7355 91.9556 49.1017 91.2829 46.8227 90.0472C46.3724 89.8138 45.9493 89.553 45.5263 89.2647C45.0213 88.9352 44.5437 88.5645 44.0934 88.1801C43.452 87.6309 42.8515 87.0268 42.3057 86.3816C41.6643 85.6265 41.1047 84.8027 40.6135 83.9241C40.1495 83.1003 39.7537 82.2079 39.4399 81.2743C39.1669 80.4506 38.9486 79.5857 38.7848 78.6933C38.7166 78.2951 38.662 77.897 38.6347 77.5126C38.5938 77.0595 38.5665 76.6202 38.5665 76.1808C38.5528 74.8903 38.7029 73.6272 39.0168 72.4053C39.1669 71.815 39.3443 71.2384 39.5627 70.6755C39.8766 69.838 40.2723 69.0143 40.7499 68.218C40.8864 67.9846 41.0229 67.7512 41.173 67.5315C41.1866 67.5041 41.2003 67.4766 41.2139 67.4629C41.3367 67.2707 41.4596 67.0784 41.596 66.8862C41.8826 66.4469 42.1692 66.0213 42.4558 65.582C43.0016 64.7582 43.5475 63.9345 44.0934 63.1245C44.0934 63.1245 44.0934 63.1245 44.0934 63.1107C44.3936 62.6714 44.6802 62.2183 44.9804 61.779C45.226 61.4083 45.4853 61.0239 45.731 60.6532C46.0039 60.2414 46.2768 59.8295 46.5498 59.4313C46.6999 59.2254 47.041 59.0332 47.3003 59.0332C58.9682 59.0195 70.6224 59.0195 82.2903 59.0332C82.5359 59.0332 82.8635 59.1979 82.9999 59.3902C84.9241 62.2733 86.9029 65.1152 88.7179 68.0669C94.0537 76.6888 89.5913 88.3311 79.9158 91.2417Z" fill="#22274E"/>
</g>
</g>
<defs>
<filter id="filter0_di_305_1199" x="0" y="-9" width="128" height="137" filterUnits="userSpaceOnUse" color-interpolation-filters="sRGB">
<feFlood flood-opacity="0" result="BackgroundImageFix"/>
<feColorMatrix in="SourceAlpha" type="matrix" values="0 0 0 0 0 0 0 0 0 0 0 0 0 0 0 0 0 0 127 0" result="hardAlpha"/>
<feOffset dy="4"/>
<feGaussianBlur stdDeviation="2"/>
<feColorMatrix type="matrix" values="0 0 0 0 0 0 0 0 0 0 0 0 0 0 0 0 0 0 0.25 0"/>
<feBlend mode="normal" in2="BackgroundImageFix" result="effect1_dropShadow_305_1199"/>
<feBlend mode="normal" in="SourceGraphic" in2="effect1_dropShadow_305_1199" result="shape"/>
<feColorMatrix in="SourceAlpha" type="matrix" values="0 0 0 0 0 0 0 0 0 0 0 0 0 0 0 0 0 0 127 0" result="hardAlpha"/>
<feOffset dy="-9"/>
<feGaussianBlur stdDeviation="5.5"/>
<feComposite in2="hardAlpha" operator="arithmetic" k2="-1" k3="1"/>
<feColorMatrix type="matrix" values="0 0 0 0 0.145098 0 0 0 0 0.741176 0 0 0 0 0.745098 0 0 0 0.21 0"/>
<feBlend mode="normal" in2="shape" result="effect2_innerShadow_305_1199"/>
</filter>
</defs>
</svg>
