<svg width="38" height="38" viewBox="0 0 38 38" fill="none" xmlns="http://www.w3.org/2000/svg">
<g id="Group 3535">
<path id="Ellipse 305" d="M18.6422 37.2843C28.938 37.2843 37.2843 28.938 37.2843 18.6422C37.2843 8.34639 28.938 0 18.6422 0C8.34639 0 0 8.34639 0 18.6422C0 28.938 8.34639 37.2843 18.6422 37.2843Z" fill="#1A1061"/>
<g id="Group 3533">
<path id="Path 27" d="M29.7672 14.9174C29.7045 14.1891 29.4722 13.4856 29.0888 12.8633C28.7054 12.2409 28.1816 11.717 27.5593 11.3335C26.1197 10.6473 24.5525 10.2695 22.9584 10.2241L22.6516 10.1933C19.549 9.87066 16.4176 9.95218 13.336 10.4358C12.6206 10.5339 11.9163 10.6998 11.2325 10.9315C10.4507 11.1825 9.75243 11.6426 9.21337 12.2619C8.53991 13.2175 8.17313 14.3554 8.16167 15.5244C8.03519 16.7935 7.98284 18.0689 8.00491 19.3441C8.01965 19.8586 8.03973 20.4588 8.0893 21.0483C8.13946 22.4066 8.52172 23.7319 9.20266 24.9083C9.67786 25.5552 10.2928 26.0868 11.0016 26.4635C11.7105 26.8402 12.495 27.0523 13.2971 27.0841C15.1235 27.3306 16.9625 27.4724 18.8051 27.5088H18.9229C20.7693 27.4924 22.612 27.3406 24.4361 27.0546C25.8499 26.9597 27.2067 26.4612 28.3457 25.6184C29.3356 24.5453 29.8648 23.1266 29.8195 21.6673C30.0766 19.4236 30.059 17.1569 29.7672 14.9174ZM28.6686 21.5709C28.721 22.7316 28.3307 23.8689 27.5767 24.7529C26.6023 25.4371 25.4571 25.8373 24.2687 25.9091C22.4625 26.1896 20.6382 26.3369 18.8104 26.3499C17.0117 26.3133 15.2166 26.1742 13.4338 25.9332C12.7989 25.9283 12.1738 25.7758 11.6079 25.488C11.042 25.2001 10.5506 24.7847 10.1727 24.2746C9.6006 23.2572 9.28212 22.117 9.2442 20.9505C9.19597 20.3905 9.17725 19.8117 9.16251 19.312C9.14197 18.0819 9.19299 16.8517 9.31527 15.6275C9.31272 14.6928 9.5878 13.7783 10.1057 13.0002C10.5145 12.5429 11.0396 12.2048 11.6251 12.0221C12.2386 11.8162 12.8702 11.6686 13.5115 11.5813C16.496 11.1127 19.5287 11.0335 22.5337 11.3455L22.8459 11.3763C24.2817 11.4144 25.6947 11.744 26.9992 12.345C27.4656 12.6476 27.8555 13.0541 28.1382 13.5328C28.4209 14.0115 28.5886 14.5492 28.6284 15.1037C28.9041 17.2497 28.9185 19.4213 28.6713 21.5709H28.6686Z" fill="white"/>
<path id="Path 28" d="M25.1679 14.1762L19.2488 18.8427C19.1815 18.9038 19.0938 18.9377 19.0029 18.9377C18.912 18.9377 18.8244 18.9038 18.7571 18.8427L12.8379 14.1762C12.7781 14.1292 12.7097 14.0943 12.6365 14.0737C12.5633 14.0531 12.4868 14.0471 12.4113 14.056C12.3357 14.065 12.2627 14.0887 12.1964 14.1259C12.13 14.1631 12.0716 14.213 12.0246 14.2727C11.9775 14.3324 11.9427 14.4009 11.9221 14.474C11.9015 14.5472 11.8955 14.6238 11.9044 14.6993C11.9134 14.7748 11.9371 14.8478 11.9743 14.9142C12.0114 14.9805 12.0613 15.0389 12.121 15.0859L18.0403 19.7525C18.3114 19.9764 18.652 20.0989 19.0036 20.0989C19.3552 20.0989 19.6958 19.9764 19.9669 19.7525L25.8861 15.0859C26.0067 14.9909 26.0847 14.8518 26.1028 14.6993C26.1209 14.5468 26.0776 14.3933 25.9826 14.2727C25.8875 14.1521 25.7485 14.0741 25.596 14.056C25.4434 14.0379 25.29 14.0812 25.1693 14.1762H25.1679Z" fill="#28BCC0"/>
</g>
</g>
</svg>
