<svg width="38" height="38" viewBox="0 0 38 38" fill="none" xmlns="http://www.w3.org/2000/svg">
<g id="Group 3534">
<path id="Ellipse 290" d="M18.6422 37.2843C28.938 37.2843 37.2843 28.938 37.2843 18.6422C37.2843 8.34639 28.938 0 18.6422 0C8.34639 0 0 8.34639 0 18.6422C0 28.938 8.34639 37.2843 18.6422 37.2843Z" fill="#1A1061"/>
<path id="Path 102" d="M13.4392 21.2967C15.0881 23.2718 17.1418 24.8734 19.463 25.9943C20.5133 26.5356 21.6572 26.8742 22.834 26.9921C22.9153 26.9921 22.9933 26.9988 23.0746 26.9988C23.4814 27.0109 23.886 26.9343 24.2599 26.7744C24.6339 26.6145 24.9682 26.3751 25.2395 26.073C25.2452 26.0678 25.2501 26.0618 25.254 26.0552C25.4687 25.8085 25.6966 25.5735 25.9367 25.3512C26.1026 25.1927 26.2708 25.0275 26.4356 24.8578C26.6138 24.6979 26.7562 24.5023 26.8534 24.2839C26.9507 24.0655 27.0006 23.8291 27 23.5902C26.9994 23.3513 26.9482 23.1152 26.8498 22.8973C26.7514 22.6794 26.608 22.4846 26.4289 22.3255L24.3018 20.2001C24.1447 20.0251 23.953 19.8841 23.7389 19.7859C23.5247 19.6877 23.2925 19.6343 23.0567 19.6292C22.8195 19.6353 22.5858 19.6886 22.3695 19.7859C22.1532 19.8832 21.9587 20.0225 21.7972 20.1957L20.531 21.4563C20.4196 21.3898 20.2937 21.3299 20.1813 21.2734C20.0482 21.2094 19.9185 21.1387 19.7926 21.0616C18.5749 20.2753 17.4935 19.2972 16.5908 18.1657C16.1553 17.643 15.7913 17.0651 15.5083 16.4472C15.8424 16.1478 16.152 15.834 16.4527 15.528C16.5641 15.4172 16.6688 15.3063 16.7779 15.1954C16.9553 15.0335 17.0986 14.8381 17.1994 14.6205C17.3001 14.403 17.3564 14.1676 17.3648 13.9282C17.3566 13.6883 17.3 13.4524 17.1984 13.2347C17.0968 13.017 16.9523 12.8219 16.7735 12.6609L15.7199 11.6121C15.5963 11.489 15.4794 11.3693 15.3591 11.2462C15.1297 11.0111 14.8858 10.7639 14.6453 10.5422C14.4841 10.3743 14.291 10.2399 14.0773 10.1468C13.8636 10.0538 13.6334 10.0039 13.4002 10C12.9248 10.0106 12.4725 10.2064 12.1406 10.5455L10.8176 11.8626C10.345 12.323 10.0572 12.9391 10.008 13.5955C9.96017 14.5592 10.1279 15.5215 10.4991 16.4128C11.1854 18.1991 12.1804 19.8519 13.4392 21.2967ZM10.8711 13.6687C10.9052 13.2146 11.1052 12.7886 11.4335 12.4713L12.7498 11.1619C12.9192 10.9816 13.1525 10.8743 13.4002 10.8626C13.5216 10.8684 13.6405 10.8984 13.75 10.951C13.8594 11.0036 13.9571 11.0776 14.0372 11.1686C14.2744 11.3903 14.4971 11.6121 14.7377 11.8593C14.858 11.9824 14.9816 12.1054 15.1052 12.2329L16.1587 13.2818C16.2555 13.364 16.3348 13.4646 16.3922 13.5777C16.4495 13.6907 16.4837 13.814 16.4928 13.9404C16.4837 14.0667 16.4495 14.19 16.3922 14.303C16.3348 14.4161 16.2555 14.5167 16.1587 14.5989C16.0474 14.7098 15.936 14.8207 15.8246 14.9315C15.4905 15.2642 15.1876 15.5757 14.8479 15.8751L14.8301 15.8928C14.7224 15.9884 14.6474 16.1152 14.6156 16.2553C14.5839 16.3955 14.5969 16.5421 14.653 16.6744C14.653 16.6855 14.6597 16.6922 14.6642 16.7022C14.9814 17.4281 15.4014 18.105 15.9115 18.7123C16.8705 19.9218 18.0225 20.9664 19.3215 21.8044C19.4725 21.8972 19.6282 21.9819 19.7881 22.0583C19.9212 22.1223 20.0509 22.193 20.1768 22.2701L20.2158 22.2912C20.3213 22.3476 20.439 22.3776 20.5588 22.3788C20.6582 22.3756 20.7559 22.3527 20.8463 22.3116C20.9367 22.2705 21.0181 22.2119 21.0856 22.1393L22.4097 20.821C22.4914 20.7288 22.5907 20.6536 22.7017 20.5998C22.8128 20.5459 22.9334 20.5145 23.0567 20.5073C23.1769 20.5147 23.2944 20.5464 23.402 20.6003C23.5095 20.6542 23.605 20.7293 23.6826 20.821L25.8153 22.9409C25.9153 23.0212 25.9957 23.123 26.0507 23.2387C26.1056 23.3543 26.1336 23.4809 26.1325 23.6088C26.1314 23.7367 26.1013 23.8627 26.0445 23.9775C25.9876 24.0922 25.9055 24.1926 25.8041 24.2713C25.656 24.4299 25.5001 24.5807 25.3342 24.7392C25.0745 24.9808 24.8276 25.2358 24.5947 25.5031C24.4044 25.7142 24.1698 25.8811 23.9074 25.9918C23.6451 26.1026 23.3615 26.1545 23.0768 26.1439C23.0166 26.1439 22.9532 26.1439 22.893 26.1373C21.8283 26.028 20.7939 25.72 19.8438 25.2293C17.6338 24.1622 15.679 22.6364 14.1107 20.7545C12.9173 19.3833 11.9719 17.8164 11.3165 16.1234C10.9872 15.3482 10.835 14.5097 10.8711 13.6687Z" fill="white" stroke="white" stroke-width="0.2"/>
</g>
</svg>
