<svg width="163" height="113" viewBox="0 0 163 113" fill="none" xmlns="http://www.w3.org/2000/svg">
<g id="Group 3425" opacity="0.23">
<path id="&#216;&#170;&#219;&#140;&#217;&#133; &#217;&#133;&#216;&#175;&#219;&#140;&#216;&#177;&#219;&#140;&#216;&#170; &#216;&#167;&#217;&#132;&#218;&#175;&#217;&#136;&#216;&#177;&#219;&#140;&#216;&#170;&#217;&#133;" d="M143.745 46.7403C142.559 49.8287 143.78 53.2568 146.12 55.5959C148.037 57.5128 149.659 59.7261 150.988 62.2361C153.237 66.2017 154.361 70.5923 154.361 75.4077C154.361 84.1888 151.129 91.412 144.663 97.0773C138.478 103.026 130.888 106 121.892 106C112.896 106 105.165 103.026 98.6988 97.0772C92.2329 91.412 89 84.1888 89 75.4077C89 70.8755 89.9839 66.2017 91.9518 61.3863C94.2008 56.5708 97.5743 49.7725 102.072 40.9914C104.04 37.0258 106.43 31.927 109.241 25.6953C111.69 20.7597 114.139 15.8241 116.589 10.8885C117.77 8.50656 120.2 7.00001 122.859 7.00001L148.815 7.00001C153.725 7.00001 157.11 11.9243 155.35 16.5086L143.745 46.7403Z" stroke="#25BDBE" stroke-width="14"/>
<path id="&#216;&#170;&#219;&#140;&#217;&#133; &#217;&#133;&#216;&#175;&#219;&#140;&#216;&#177;&#219;&#140;&#216;&#170; &#216;&#167;&#217;&#132;&#218;&#175;&#217;&#136;&#216;&#177;&#219;&#140;&#216;&#170;&#217;&#133;_2" d="M62.5467 46.6891C61.3357 49.7994 62.5716 53.2627 64.9471 55.6073C66.8865 57.5215 68.5287 59.7311 69.8735 62.2361C72.1546 66.2017 73.2952 70.5923 73.2952 75.4077C73.2952 84.1888 70.0161 91.412 63.4578 97.0773C57.1847 103.026 49.4859 106 40.3614 106C31.2369 106 23.3956 103.026 16.8373 97.0772C10.2791 91.412 6.99999 84.1888 6.99999 75.4077C6.99999 70.8755 7.99798 66.2017 9.99397 61.3863C12.2751 56.5708 15.6968 49.7725 20.259 40.9914C22.255 37.0258 24.6787 31.927 27.5301 25.6953C30.0203 20.7478 32.5104 15.8004 35.0005 10.8529C36.1895 8.49056 38.6085 7.00001 41.2532 7.00001L67.7626 7.00001C72.6874 7.00001 76.0724 11.9506 74.2856 16.5398L62.5467 46.6891Z" stroke="#25BDBE" stroke-width="14"/>
</g>
</svg>
