<svg width="163" height="113" viewBox="0 0 163 113" fill="none" xmlns="http://www.w3.org/2000/svg">
<g id="Group 3424" opacity="0.23">
<path id="&#216;&#170;&#219;&#140;&#217;&#133; &#217;&#133;&#216;&#175;&#219;&#140;&#216;&#177;&#219;&#140;&#216;&#170; &#216;&#167;&#217;&#132;&#218;&#175;&#217;&#136;&#216;&#177;&#219;&#140;&#216;&#170;&#217;&#133;" d="M19.2552 66.2597C20.4408 63.1713 19.2199 59.7432 16.8805 57.4041C14.9634 55.4872 13.3406 53.2739 12.012 50.764C9.76305 46.7983 8.63855 42.4077 8.63855 37.5923C8.63855 28.8112 11.8715 21.588 18.3374 15.9227C24.5221 9.97425 32.1125 7 41.1084 7C50.1044 7.00001 57.8353 9.97425 64.3012 15.9228C70.7671 21.588 74 28.8112 74 37.5923C74 42.1245 73.0161 46.7983 71.0482 51.6137C68.7992 56.4292 65.4257 63.2275 60.9277 72.0086C58.9598 75.9742 56.5703 81.073 53.759 87.3047C51.3098 92.2403 48.8607 97.1759 46.4115 102.112C45.2295 104.493 42.8001 106 40.1411 106L14.1851 106C9.27462 106 5.89029 101.076 7.65011 96.4914L19.2552 66.2597Z" stroke="#25BDBE" stroke-width="14"/>
<path id="&#216;&#170;&#219;&#140;&#217;&#133; &#217;&#133;&#216;&#175;&#219;&#140;&#216;&#177;&#219;&#140;&#216;&#170; &#216;&#167;&#217;&#132;&#218;&#175;&#217;&#136;&#216;&#177;&#219;&#140;&#216;&#170;&#217;&#133;_2" d="M100.453 66.3109C101.664 63.2006 100.428 59.7373 98.0529 57.3927C96.1135 55.4785 94.4713 53.2689 93.1265 50.764C90.8454 46.7983 89.7048 42.4077 89.7048 37.5923C89.7048 28.8112 92.9839 21.588 99.5422 15.9227C105.815 9.97425 113.514 7 122.639 7C131.763 7.00001 139.604 9.97425 146.163 15.9228C152.721 21.588 156 28.8112 156 37.5923C156 42.1245 155.002 46.7983 153.006 51.6137C150.725 56.4292 147.303 63.2275 142.741 72.0086C140.745 75.9742 138.321 81.073 135.47 87.3047C132.98 92.2522 130.49 97.1996 127.999 102.147C126.81 104.509 124.392 106 121.747 106L95.2374 106C90.3126 106 86.9276 101.049 88.7144 96.4602L100.453 66.3109Z" stroke="#25BDBE" stroke-width="14"/>
</g>
</svg>
